<mxfile host="app.diagrams.net" modified="2023-07-17T09:35:58.886Z" agent="Mozilla/5.0 (X11; Linux x86_64) AppleWebKit/537.36 (KHTML, like Gecko) Chrome/114.0.0.0 Safari/537.36" etag="OT8DiZcQQl1il_myG9_v" version="21.6.1" type="google">
  <diagram id="k4qrqWiLBMiD8qhY5AKl" name="Page-1">
    <mxGraphModel grid="0" page="1" gridSize="10" guides="1" tooltips="1" connect="1" arrows="1" fold="1" pageScale="1" pageWidth="850" pageHeight="1100" math="0" shadow="0">
      <root>
        <mxCell id="0" />
        <mxCell id="1" parent="0" />
        <mxCell id="TC4IfOd9Ixw-6cA6Cm5Y-8" value="Job Service" style="rounded=1;whiteSpace=wrap;html=1;" vertex="1" parent="1">
          <mxGeometry x="497" y="-934.96" width="120" height="60" as="geometry" />
        </mxCell>
        <mxCell id="TC4IfOd9Ixw-6cA6Cm5Y-15" value="" style="sketch=0;aspect=fixed;html=1;points=[];align=center;image;fontSize=12;image=img/lib/mscae/SchedulerJobCollection.svg;" vertex="1" parent="1">
          <mxGeometry x="542.18" y="-823" width="29.65" height="25.5" as="geometry" />
        </mxCell>
        <mxCell id="TC4IfOd9Ixw-6cA6Cm5Y-17" value="wait 30 secs" style="text;html=1;strokeColor=none;fillColor=none;align=center;verticalAlign=middle;whiteSpace=wrap;rounded=0;" vertex="1" parent="1">
          <mxGeometry x="575" y="-827.5" width="80" height="30" as="geometry" />
        </mxCell>
        <mxCell id="TC4IfOd9Ixw-6cA6Cm5Y-18" value="&lt;b&gt;3: &lt;/b&gt;Schedule job" style="text;html=1;strokeColor=none;fillColor=none;align=center;verticalAlign=middle;whiteSpace=wrap;rounded=0;" vertex="1" parent="1">
          <mxGeometry x="547" y="-869" width="114" height="30" as="geometry" />
        </mxCell>
        <mxCell id="Dg8Lg_cfrjFTCo7h0x2n-6" value="" style="endArrow=classic;html=1;rounded=0;dashed=1;" edge="1" parent="1">
          <mxGeometry width="50" height="50" relative="1" as="geometry">
            <mxPoint x="279.40000000000003" y="-1027.96" as="sourcePoint" />
            <mxPoint x="279.40000000000003" y="-965.96" as="targetPoint" />
            <Array as="points">
              <mxPoint x="279.16" y="-1028" />
            </Array>
          </mxGeometry>
        </mxCell>
        <mxCell id="Dg8Lg_cfrjFTCo7h0x2n-7" value="&lt;font style=&quot;font-size: 12px;&quot;&gt;&lt;b&gt;1&lt;/b&gt;: Time-based state is Reached&lt;/font&gt;" style="text;whiteSpace=wrap;html=1;" vertex="1" parent="1">
          <mxGeometry x="287" y="-1034" width="160" height="23.96" as="geometry" />
        </mxCell>
        <mxCell id="Dg8Lg_cfrjFTCo7h0x2n-12" value="" style="endArrow=classic;html=1;rounded=0;dashed=1;" edge="1" parent="1">
          <mxGeometry width="50" height="50" relative="1" as="geometry">
            <mxPoint x="392" y="-915.25" as="sourcePoint" />
            <mxPoint x="481" y="-915.25" as="targetPoint" />
          </mxGeometry>
        </mxCell>
        <mxCell id="Dg8Lg_cfrjFTCo7h0x2n-13" value="&lt;font style=&quot;font-size: 12px;&quot;&gt;&lt;b&gt;2&lt;/b&gt;: Create a Job&lt;/font&gt;" style="text;whiteSpace=wrap;html=1;fontSize=10;" vertex="1" parent="1">
          <mxGeometry x="391" y="-943.96" width="130" height="23" as="geometry" />
        </mxCell>
        <mxCell id="Dg8Lg_cfrjFTCo7h0x2n-14" value="" style="endArrow=classic;html=1;rounded=0;dashed=1;" edge="1" parent="1">
          <mxGeometry width="50" height="50" relative="1" as="geometry">
            <mxPoint x="279.40000000000003" y="-755.96" as="sourcePoint" />
            <mxPoint x="279.40000000000003" y="-693.96" as="targetPoint" />
            <Array as="points">
              <mxPoint x="279.16" y="-756" />
            </Array>
          </mxGeometry>
        </mxCell>
        <mxCell id="Dg8Lg_cfrjFTCo7h0x2n-15" value="" style="endArrow=classic;html=1;rounded=0;dashed=1;" edge="1" parent="1">
          <mxGeometry width="50" height="50" relative="1" as="geometry">
            <mxPoint x="532" y="-810" as="sourcePoint" />
            <mxPoint x="393" y="-810.25" as="targetPoint" />
          </mxGeometry>
        </mxCell>
        <mxCell id="Dg8Lg_cfrjFTCo7h0x2n-16" value="&lt;font style=&quot;font-size: 12px;&quot;&gt;&lt;b&gt;4&lt;/b&gt;: Execute callback&lt;/font&gt;" style="text;whiteSpace=wrap;html=1;fontSize=10;" vertex="1" parent="1">
          <mxGeometry x="391" y="-806.96" width="130" height="23" as="geometry" />
        </mxCell>
        <mxCell id="Dg8Lg_cfrjFTCo7h0x2n-17" value="&lt;font style=&quot;font-size: 12px;&quot;&gt;&lt;b&gt;5&lt;/b&gt;: Execution continues according to the state semantic&lt;/font&gt;" style="text;whiteSpace=wrap;html=1;" vertex="1" parent="1">
          <mxGeometry x="287" y="-744" width="160" height="23.96" as="geometry" />
        </mxCell>
        <mxCell id="Dg8Lg_cfrjFTCo7h0x2n-2" value="" style="rounded=1;whiteSpace=wrap;html=1;" vertex="1" parent="1">
          <mxGeometry x="187" y="-958.96" width="197" height="194.96" as="geometry" />
        </mxCell>
        <mxCell id="Dg8Lg_cfrjFTCo7h0x2n-18" value="" style="shape=image;imageAspect=0;aspect=fixed;verticalLabelPosition=bottom;verticalAlign=top;image=data:image/png,iVBORw0KGgoAAAANSUhEUgAAAXgAAAGGCAYAAABxBZrPAAAABHNCSVQICAgIfAhkiAAAABl0RVh0U29mdHdhcmUAZ25vbWUtc2NyZWVuc2hvdO8Dvz4AAAAmdEVYdENyZWF0aW9uIFRpbWUAbHVuIDAzIGp1bCAyMDIzIDEwOjIyOjI281aDYwAAIABJREFUeJzs3Xd4FNX+x/H3bE8PBNJoSQgBQgktdOlNlCYKAooFxY7lWq+XauGKXEV/Isq9KkURC6A0pdcklECQFgg9EEINJCGk7e78/khINiFINgGyWb6v5/HBSWZnzzlz5pMzZ2Z3FFVVVYQQQjgdTUUXQAghxO0hAS+EEE5KAl4IIZyUBLwQQjgpCXghhHBSEvBCCOGkJOCFEMJJScALIYSTkoAXQggnJQEvhBBOSgJeCCGclAS8EEI4KQl4IYRwUrpbspWcM8QuW8TquBOk+vXljec7UVW5JVsWQghRRuUOeDV9K5P7D+KDrZewqmBoF8jo5yTghRCiopVzisZK0rwJTN2aSePnf2Xf2XRS144hWCZ+hBCiwpVzBG/hxOGj5OgaMvipPoR4am9NqYQQQpRbOcfaCkajCUU1k5MjD4YSQghHUu6Ad/dyR1HTSb0iAS+EEI6k3AHv6emBoqaTni4BL4QQjqTcAa/RaFFUK1arBLwQQjiSclxktZJ1Lo75i+Mwe7alQzP9rSuVEEKIcrMz4FUuzBpI6HMryQZAwVCjK6/P+YJHAuTeSCGEcCR2BryCqWFfnn42BDMWrp7ZzdoVW1i0cBujewwkUDJeCCEchqKqajkmz3PZNbEd90w188r6WN5reWu++UAIIUT5lXPMraNGrQC0ljOcTrbcmhIJIYS4JcoZ8CpXMjJQFVfc3eXLZ4QQwpGU+7to0i+nY9V44ukhE/BCCOFIyj+CT7uCqrjhKSN4IYRwKOX+oJPJxYRiPc/JU1m3pkRCCCFuiXJfZG3UfwANdKf49rFuDHnuNd6avpEU+VCrEEJUuHJPnBtbvcuC+WMZVDeNTfNn8tWCXaRKwAshRIUr533wQgghHJXc+iKEEE5KAl4IIZyUBLwQQjgpCXghhHBSEvBCCOGkJOCFEMJJ3TTgk5OT70Q5hBBC3GIyghdCCCclAS+EEE5KAl4IIZyUBLwQQjgpCXghhHBSEvBCCOGkJOCFEMJJScALIYSTcqiAV+Nj+c53OlMfSSAHsKxYzbSqX/L1uDNYK7pw5eQIdbOc+5Q2E/3x+nEhV4Dsg2PwH1+D8BWx5BZf2XqWjdGv0ef/Iqg2qRbekyPpMP8Dfj2fWYZ3tnIiZgAe4/wx2vzn+ul4oi3lWTdPzrG3CR5fi85Rxyusn5hPT6bZhJo0X7MHc2leYD3Hpi1v0//LFvi/VwuvD1vS5ofxzElOo8QHNOT8xtBJ/nj98DOXb2XBb/F2ranf0nNi0X1XZD9+NomtN9iPjsv+Pmkvu45NO+huTfFuEQUUACX/Ad7X/sUJHujtIHVTbN9TKfrTAmoqq/94gEHbjmLwbkOvxt0wZe5lzcEvePT4Pi49PZenfbR2vau7Xy8ea1E3P/zS2H1gObvKvW4lpaay5s8HGLT1KCafjvRp2gOXrIOsOzST0d/u5OyoBbzhb6joUpaDgmu1rjxU2/+6EaTGvQW+le5wvjN9slTHpp0cK+BNOnQKaIxatAXLCjqTPWHioBygboreBRcUdDojekDRuWJCwaQ3FulG1tRf+PeOo+hrvc26x16mqR7Aytn4V+jw0698GL2ZR/t1xlT6d8Yn5AW+CLn2Bof46MwKdpV4MmDPusVfWTlY0xYxJfYI+qDxbHr0WerrAFTSE9+jy3df8cmmlTzz0P14VnRBy0zBM/hZvujXicr8Z6pQ2ftkqd+hlMemvRwq4BV3AwZFQe+hL1zWgN5dV6SSlk0b+GpgPJ5j+9E2LY4N3yeRkqbFo2kQLSd2ILKdS9FGsWaS9N02or47RtLhTCwublRrH0rku5E0Ctfnr5PBzkFzWWOJoHNQIjEL0zB2ak3f0TlEvxpHUoY34VPupc8DHoXbNl8l8X/biJl7nOSj2ahengT0CafdO02o41d07FLauhXKJO7zYQz/IIrsJi8ya8E4OnmVL8IUgyfuioKr0Q0F0Bjd8VAU3A2uRcqQe243ey06WjUZQmP9tZ9q8Asbyv2ei5l7dh8nrZ2pd62K6kVitn/Mh9tXsOXiBXL0vjSsM4CXu7/Gw37udyx4NUoq0dHP8Wb0KvZc1eDn353nek7i1eDqRUeS9pTXeo6NW6cwecdqYlMukqP3IzyoP2O6lbJulkN8Prsvb52qzRtPLGVSLRcsl49w1KqjQWgPQguOQAWPmsN5qdkRlujNXFbB07qG0R8/yuyrNhNPB8fgN25MwaLW53nWvTiONtfGCaWpm6UM27WeZePW//DRzlXEplzCaqpNq7ARvN1tFJ09yhIj2exc149u6w8S3nUZ67s0LvhjYL38PQNnvMka1ydY9uz7dDEqpa+bmsxXs1vzhnU071fZwJS9J/AIeYOZbdKZvHgGW3KCefj+b/micS205E3v1Z/1A7V7/sq/zP/lX9vXsT9Tg69fd57tOYnXQnwp8xDMjjYr7bFpL4cKeNyNeaHnpkcBFI+8UDR46EuopErm7zFEBdakxXth6JKT2PVFPOsevoJmzQBahV7rFDkkjv+Nn6dfQhtak3ojqqBLOcuRP+JYujWF3FX30Sy4cOvWA2fIer4LAxrGsmT8VpYqLbn3m16ceGclW9/dQcP7uhBkBNRsjr2ziF+/Sce1dSgRL3uhJCdz4Ocofo5O5cGVnQj2LmvdAHMCi+es4XiaGWLmsDDuHTp1Kd94SDF4Fuk0ijFv2dXoWjQAzVlkoeBmLNa5tB2Y9tpxptn+TE1n48rB9I8+hMHnHvq16Itrxi6WHZzBk4kHyBg9l6eq3pmzlIzDHzD6spaOjUbQKj2WJQd+490fTsHoRfzDV2d/edVLrFw+iMHbj2Gs0pY+TXvimrmP1Ydm8OTxXZwf9RNjfPU3LhC57N/yOpNO5BLR+RPeqeUCgMbNF1/FwvEz8aSqoVS91siaUB4fMJvHr71cCaRjxDA02SpYT7B2dxSnPNrxcN3ggjAsMuVR2rrZvd28KbsHtiXiU2sQT3Ssgy5tK7/unki/E8dZ+PSH9HCxN4aMtOj4ES/HD2RK1Fi+bvILL/noQD3Hrys+YlV2LZ566E06F4S7ff3MfG4nl9p/xPd+03hs5b95gpf56qEZbPjzGT7543MebPAx3QvST+XivvcY696Wx3t9jOuVbcyJ+p6x807C07/xht/f7eMbsLPNSn1s2smxAl5rwivEnSx/Q14lPd3wDnTDUK2kYLOS7lKPJ+dEUEULEEZYAyvfjEggbt55WozzRQOoZw4R/c0lNB06MHJBBD4GAJX0+X/y7QvH2TbnPE3H+xY0ouIbSP1efvjl1qfWByfJ6tWQ4FYuePf3Ydv7Fzl3WiUoWEE9sp9Nc1PRd+vEiPmN8c4/zY7svJJvn97PxllNCHqlSmFA2lU3QNeAwaP7sWRyFDkRzzGs5S042dVUpXbVQC55eKEBNEZ/gjwDcHcr+yjbmr6If29LQBs0nk0jn6G+FsDCP3c9ReSiVXy2Yw+P92x2BzqamYQrESx75l3aGwGsvL17NG0X/MGX27fx0n3tMdhZXsvFeby34yiG2u+ybuSLNNEDqKQcfpt7vp/LlKgNjBrUA7cblCjn7Nc8v247lsB/MKNTBC75P9f69OOR2p/x6r5/8YiPjo/b9qCRawkhomnIyHv/w0jIuxi6N4qz/sP4ZOAQvK9fu/R1s3O7lpQfmLTjGC51J7PukccI0uS170shz9Dq1++ZEDuKrveE2j/S1TfnrX6jWfrddD7842cGjhiGW8KH/DM+hZrNPmViXa+CfmlvP9O4t2NgWEuaWR6iw5oNXAp7mB61qhMSHs601fHsSbPSveq1o95Cku5+tg17Nv+s9AEerKEjctZ3fBW7jZfv62D3VJPdbXYbjk1wtIDX16Dr5pGFy34NGLirwQ1W1lC1S028bXqVqV1N/PQHOHEsDSt5oa1UCaHPhhooVT3wKthLCh69gwnUH+XEsTQsFAY8Og0aBdBo0GhAo8trXo1eg6KasebfIpG7+wznc7QEDamXH+5523XrG0aw52EORJ0h6+UqFPyRtqtuAEYaj55H7Oi/azA7advz7xe2Fy57DGHeq0PKtUmNS1+mP9cBjWst6hTsCy0B9fsQqf2T9SmJ5HAnAl5LcIP+tDYWlIzAhoPpZlzGgvMJXFTbE6DYV97M5J3sserp1Hy4zVSVQtWQx3mteQrrXHNJU8GtpCPQvI9piz9hK82ZMOAlmts2gBLE6Ae+IGH+y3y94QlabqpCWJ2eDGoynNERbalRxsa6Xfvi6ukd7LEY6BYxMD+oADT4NXiQnqalLDgey+WOofgUtIOVM9uH4LG92IY0Qbz85Cam1C78Y+Za61X+r+1Kekd/xNjd3vis/5XTHoP5qVf3wjObMtRN0Wjz/l/RoVdAr837jU6jRSGbXKvtvUo6wup2IcRmqOxWswsdjN8y//whLqgdCLQzZe1us9twbIKjBbxdFHSuxYqv16AF1Fxr4e1yJhe86+WNnayZueTmWlFVINua95fRbC35trSbsGSYsSo69DozmRdttmDWoHdXUNNzyFbB7jPXykZfjeBq1QCV3NwrXLVY8trTbEGDimo136FbFxU8jB5FT2c1HnjqlfwpJ3vLq5KVm4kVDR6mYqMoTUNGDfgvo64rg5Vzx/7H2FXVMV9cxX9PKbTt+R9eLeGOGK1XHz59eitPH/6dn/f9yZKE3/no6K98Ffsc8x/9F11dy9Bxbsu+UMnOzcSCCXdtJheu2twXaNHiZtBgzU4lHfAp+IWCm29vHgkOKNpuig8dPIpPOLjSvvNHPHvgIaYvfgG9pRoPPTSW+4vX/zb3M5PeVKysJlx0gDmLbLu3VpY2uz0qccCXkjWLU19tZu2XR0k+nZsX7jbK2gBq/rb3j5rF/hJ+r61Rlj8blZCaQnTMeN6OWU5sWgaWYtUu/Z02d4gd5bV/D1q5kPgTnyTmL2qCaV6j1o1P7zXehIc9xoSwx5hgvUB01IsMWf0VT63qwK4B3fCw9+1v075QAdTLzP+5GfNL+L3BSy3WVgoedZ5k6n2lvIvG2JJhjUL4csNBcj0H80i96tdPS1SyfmZ/m90eTh7wKmnfr+bXsadwuS+Sfp/54X7tok32KTYNj6Wsz6vKu6fdQMjY3rRufv1oS/Hyxt2hPkZ2O1g5ufNFBq3YjE/Df/Bd/5YE6PIrbd7MxHmfEFuxBSzGvvLaP4bWEd75D7Z3b4L17DS6zfyIb/6cwaNPv150iqYkmmq07/ABr8R3YeyBZWy5vxs97ZrUvn37Iq+ve9Kr+1e8WsL8kcZUF/9ynKmaL8zirS2HcfOpi+ulX/jX5kfp2K3wmkXl62e3v81Ky7kDXs3m+NJTZLkG02d6SxrYDomuZGAqRwNr3XRoAFNYDYK6OMF9+rZ0JkyoXMnOQKXwQheWKF79bARzPN9ky5PPU09JZW18FKmG3kwf9DIPGm22kZ1MlTs6PaWSnn0FKzYfz7amk5args6EEUC1p7wKJr0LGqykZaWj4lPYDtb9zPx9KmvdBvNpz/sIKKGeBr9n+LjNInpFzeD1bYNY0b5u/sFmZufmJ3j1QHWefWgqw7xsRgFKNfzcFNSzqVy2gl1XLe2qmz0UjHoXtKhUrd6BbnWNN3+JPaxH+e/Sj9lsjWDi0P/Da8W9vBL1Jv9puJh/BeS/122r2zUqqVnpxfpOKpdz1PxjwV63uc3s4PRjTI1WgdxMMi7bnhCpZKxL5GypPlNeMn2EP76GXE4tSyTTZtPqyYMsv/dX5n+YVLqPrN9QNntnjiAyJIimA6eyNb1cG7OL3rcpjbVmYnf/zJ6Cz0lbOX/oZ5am5eDh24haGgAFraKAJYXzmbYzoFbOHVlPnPUGR57iiocB1KwznLnZ57BLva6FI/G/sa1gwtTK6fgFrM3W4Fs9jGqK/eV1CWhBE00u0XE/sq/gvVVSjs5i2l9/EpVhxPOG4eJC204Tedw7i+gN45ibeu39tAS6WNhzcgHTtm3HtltmXfiZeSfM6Hwa0rB4uGuMmLQK1qxUUks8ty/jvrjpdsE1sCVNtVfZHL+OCzbrWC7/zDPf3EeftdGF1zjsYuFo7D+ZcCyLJu0/ZIx/XZ6892XaKHv4z5IZ/FVwAJWxbnaU48SBhURnqQXLSfsXsjYnr+/4FN98Kfrk7Wsz+zj3CF4xETS4Dq4rj7B+0DJShtXCx9NK+q7jHDys4qqHq2XddEg494yM55dvVjL7VCj1It3RpqdyculRki550Wacb/ka13yABTMXszfZDGdn8OOOMbQp533wpaXxeoi3W3zHoO0f0e2LDfQOCsaUuY81h3dzztSJTzt0yBvVKF70aNKDagnLeHf2oyQ060J9Uy5Jp1ey6KJKdS1cKOkNFH+6hTXFeGIpL3zzCEtq+OaNsNER0vgt3gi1GS2XYl2uLbtsZ9TM4XQKDcN0JZbF8Ts4p2/FB5Gt8+aC7Syv1mc4Y1vMY3Dsh3SZvo57g+vimrmPVQk7STa2Y0rHzje8RRJAMXVmXO8BLPnpNyasXMb9D/ajuqLg3+QfvBK7lQ83P0STQx3pGhiAIeswmw9v57ilFiO7jaRR8aGXthmda7vx0+FPeHDeHlq65fUufeCjTG3dHGNZ98XNtgtoq45gXMt5DNr2HB1S+9G/Vg2M2UfZFP8HWzNDeLVHRLFRrkrasa948bffSviqgm680e1+gjVguTSPl9dsJKPaM3x6T7O8bfg+zacdfqPL+s8ZE9ObVfc0xFDWupWajvpeB3nu64dpH9YQ1/y+c0HfgvdaRV5/HaEUfdL+NrOXhYSpnWk1dgfW2s+wdNc0urhcv5ZzBzzgPrgbQ7PdWD/9MHumnMRicqN61wZ0n16VfV2Sy94xFCNBkwcyNGQb0XOOs3t6JhaTKz5tGtHnjUgiWpXhwxG2dGH0H9mdH9/fTE7Tx3igeTm3Zw/Fix59F7CkykdM3rmaFbtjMet9Ca/3PFO6v8ZQn4Kb0fBv8inLLH68G7WUues3kKP3o3HdYUwdFMa8GduIL/ENtDRo9zXfZ77N2J2b+SkuG4uqAnraVn+e120DvhTrXuMZNo7P+Jo3Y+aw96oWP/+BvN9rEq/6lrG8ShV63beQZdWm8GHsKpbv2kqu3pfw0Gd5r/trDK9+s32iUL3hv5gYto5n901iQrNOfFHPC8XQkrGP/U7djdP4en80S/7ahGqoTlidkUzt+ArPBpdwkVEJYGT/6Rxe/B6zj/zKnvy7v0yZHZncujnGsu6Lm243rz90v3chS6t+zL93rGJ29EWyddVpUPtR/q/zPxhVq/ifOZWrF9Yyu4SDS+vjzWNd7ydYPcWcZR+yOrsOo4e8SvuCFDXQvMMHPL9vMJ9ueIsv6i/gNV99GftZ6bmGvMOnoV/z+ua57M7Q4Ovfn0k93+O1Ej/kVIr+a3eb2UlNIXrTfszoaPTIk3QsIdwBFFUtfl9JUcnJyQQEBJSvMEII4YCufVVBnd6bWNs+qPLMWWcs4cl6DzM/qyNT4/7g+Toll7zS1EcIIW6Xvx/mOp7cvzYSk6bi1etJhta+cYxLwAshRKVi4fDmKJIIZPCo+6+/CGxDAl4IISoT9QIxm+JR6w3niS5/P5cvc/BCCOGkZAQvhBBOSgJeCCGclAS8EEI4KQl4IYRwUhLwQgjhpCTghRDCSUnACyGEk5KAF0IIJyUBL4QQTkoCXgghnJQEvBBCOCkJeCGEcFIS8EII4aQcKuDV+Fi+853O1EcSyAEsK1YzreqXfD3uDNaSXnD1EIv8pzN12ME78gDb8rC7breB5dyntJnoj9ePC7kCZB8cg//4GoSviOVmz74uHysnYgbgMc4fo81/rp+OJ9pSnnXz5Bx7m+DxtegcdfyOtWVx5tOTaTahJs3X7CnVw9Yrbl+Iu4ljPZNVIe9ZlEr+N9hf+/f6J1RWPg5SN8X2PZWiP72d7+ru14vHWtTND780dh9Yzq5yr1u5Vcy+EHcTxwp4kw6dAhqjFm3BsoLOpK3okpWfA9RN0bvggoJOZ0QPKDpXTCiY9MbbHCsKPiEv8EVI/qL1EB+dWcGuzPKuW/yVlUfF7QtxN3GogFfcDRgUBb2HvnBZA3p3XWGnzznB8obL2J1i85ySP1czrcrqwu3Ubc6jMe0J1KYRe/88Vu/0pfuWQUQG2R46OSSMnsuiRa60Wz2UThEaLJs28NXAeDzHDaBjzl+s/zaRC5cU3BrVocX4jrTp5Fr04DNfJfF/24iZe5zko9moXp4E9Amn3TtNqONXdParVHUrIpO4z4cx/IMospu8yKwF4+jkVb5DXzF44q4ouBrdUACN0R0PRcHd4Hp9Gazn2Lh1CpN3rCY25SI5ej/Cg/ozpttrPOznXnR99SIx2z/mw+0r2HLxAjl6XxrWGcDL3UtY9zbSKKlERz/Hm9Gr2HNVg59/d57rOYlXg6sXnYu0p7z2tENJLIf4fHZf3jpVmzeeWMqkWi6AnftCiDJyqIDH3ZgXem56FEDxyAtFg4e+sNNr3Kk1pCFKBmBO5fjPSaQFBNKoqzfXxsJKdT9cNYDGg/oPBbJhy2niF6fSaox34XauJHFwbTZKWGPqN7I9/FUyF0ezwTeQphO6oD+XzJ4v9rN+WBqseoC24fnrqtkce2cRv36TjmvrUCJe9kJJTubAz1H8HJ3Kgys7EextZ91smRNYPGcNx9PMEDOHhXHv0KmLoVzNqxg8i4SIYsxbdjW6FgvAS6xcPojB249hrNKWPk174pq5j9WHZvDk8V2cH/UTY3z1+eums3HlYPpHH8Lgcw/9WvTFNWMXyw7O4MnEA2SMnstTVe/MWUrG4Q8YfVlLx0YjaJUey5IDv/HuD6dg9CL+4auzv7z2tEOJctm/5XUmncglovMnvJMf7mDHvhCiHBwr4LUmvELcyfI35HV6Tze8A90wVLMJNp0PTSZ3pQnkXWRdmERG43B6fF4f03UbVPC4P4w6405y9LcjpLzQEp/8Yzdn0xGOXVKo9nQo1Yu0gpV0Q12emNuMqjqAMBq20PDtgD3s/C6ZyI9roAXUI/vZNDcVfbdOjJjfGG8dgEpk55V8+/R+Ns5qQtArVQrDuzR1s6VrwODR/VgyOYqciOcY1rJ84Q6Apiq1qwZyycMLDaAx+hPkGYC7W9GRqOXiPN7bcRRD7XdZN/JFmujz6pZy+G3u+X4uU6I2MGpQD9wAa/oi/r0tAW3QeDaNfIb6WgAL/9z1FJGLVvHZjj083rPZHehoZhKuRLDsmXdpbwSw8vbu0bRd8Adfbt/GS/e1x2Bnee1ph5LknP2a59dtxxL4D2Z0isDF9pel3BdClIdjBby+Bl03jyxc9mvAwF0NyrfNakE06m7k8PLDHDjYgg7hCpBL4pJEMrU+tOpftdiISUPVbrWpYtMy+la1qem5h/0Jl7hqrYGHBnJ3n+F8jpagIfXywx1Awa1vGMGehzkQdYasl6vgcu1otbtuRhqPnkfs6PJVvwhte/79wvbCZY8hzHt1yHWrZSbvZI9VT6fmw2lcMEBVqBryOK81T2Gday5pKrgpoHHpy/TnOqBxrUWdgoG6loD6fYjU/sn6lERyuBMBryW4QX9aG68tawhsOJhuxmUsOJ/ARbU9AXaW1552uI55H9MWf8JWmjNhwEs0L94ApdwXQpSHYwX87aCYCHkoCNclhzjw20XahVdDc/U0CWuyUBpFUD+s+NGpoHMpNqWgaNEZgWwz1+7Us2SYsSo69DozmRdtrgeYNejdFdT0HLJVCgO+0lDJys3EigYPU7HRpKYhowb8l1G2P9NXI7haNUAlN/cKVy0WVACzBQ0qqtV8h25dVPAwehT9Y63xwFOvgDmr8DbaUpfXznYAwMq5Y/9j7KrqmC+u4r+nFNr2/A+v+t+Csy8hysD5Ax4wdg2jnm8Ce34/zLk3q+ETdYQjFxT8nqtLWaeHVQBrFvtHzWJ/Cb/X1lBL+GnlYFfJ1RSiY8bzdsxyYtMysBR78fXTZhXMjvLavwetXEj8iU8S8xc1wTSvUQuJd1FR7oqAx7UGjfq5s/u7I8TvakGdpSe4qqtO635eZZ7vzLun3UDI2N60bn79VhQvb9wr6dWy0reJlZM7X2TQis34NPwH3/VvSYAuv9LmzUyc9wmxt6mMZWNfee3vGzrCO//B9u5NsJ6dRreZH/HNnzN49OnXr5+iEeIOuEu6nZYaD4Xi/e1fHFq0l+w1mWiaN6d+cEmHsEr25RxUbA5wSw7ZGSoY8+5lB9C66dAAprAaBHVxgvv0CyiY9C5osJKWlY6KT2E7WPcz8/eprHUbzKc97yOAVNbGR5Fq6M30QS/zoNFmM9nJVLmj01Mq6dlXsGLz8WxrOmm5KuhMGAFUe8prRzuUUE+D3zN83GYRvaJm8Pq2QaxoX/duOdiEA6mkY8x8Wi1aA6ipWWTfZKJX27weDevBpZ//IuGMhsCBIXiVWHsrqX8mcCr12rJK+uKDHM9QcKtfeNFUH+GPryGXU8sSybQ5l1dPHmT5vb8y/8OkUn1k/cay2TtzBJEhQTQdOJWt6eXamF1cAlrQRJNLdNyP7Cv43LxKytFZTPvrT6IyjHjmncKgVRSwpHA+03YHWDl3ZD1x1hskvOKKhwHUrDOcudnn8ku9roUj8b+xLbuwDKfjF7A2W4Nv9TCqlaG8pW+HkrjQttNEHvfOInrDOOamVtSXKIi7WeUeVOh9qdNaz/51sSwYcZ6A6nkjaU1EOD1G+VFkXK2rRviDPmz54DxXDTXocJ/HDU7BNfgEpvBHj8XU7OGD/twZDi07w1WTH10eDyi81z4knHtGxvPLNyuZfSqUepHuaNNTObn0KEmXvGgzzrd8jWs+wIKZi9mbbIazM/hxxxjalPM++NLS+gxnbIt5DI79kC7T13FvcF1cM/exKmEnycZ2TOnYOe/WQMWLHk16UC1hGe/OfpSEZl2ob8ol6fRKFl1Uqa6FCyW9geJPt7Dy0xHrAAAgAElEQVSmGE8s5YVvHmFJDd+8ETY6Qhq/xRuhNqPlUqzLtWWX7YyaOZxOoWGYrsSyOH4H5/St+CCydd48uJ3lLXU73IBi6sy43gNY8tNvTFi5jPsf7Ef1Mp/VWEiY2plWY3dgrf0MS3dNo4vLzV8l7m6VO+A17jSZ1pNLr8Tw17oEzmXnDaV1KTXoWjzgUajaOwiff5/nUptQ6tW40ZGmoOvSlp7d/2L15/s4d0HBrVE9Ok/oSJtwmyG/YiRo8kCGhmwjes5xdk/PxGJyxadNI/q8EUlEq7/7AEwp6MLoP7I7P76/mZymj/FA83Juzx5KFXrdt5Bl1abwYewqlu/aSq7el/DQZ3mv+2sMr36tLAr+TT5lmcWPd6OWMnf9BnL0fjSuO4ypg8KYN2Mb8SW+gZYG7b7m+8y3GbtzMz/FZWNRVUBP2+rP87ptwJdi3Ws8w8bxGV/zZswc9l7V4uc/kPd7TeLVax9ysre8pW6HGzYk1Rv+i4lh63h23yQmNOvEF/XKeN1HTSF6037M6Gj0yJN0lHAXpaCoqvq3NwskJycTEBBwp8pzW12Zs4SvXzlNjf88wtAn3K470Aq+qmDSMB55oewXYIW45TKW8GS9h5mf1ZGpcX/wfJ3KPbsq7oy7p5dYr3Bo4WlyTYE06Ht9uBdRee9wFE4q96+NxKSpePV6kqG1757DVpTPXdNT1FNHid9ixtAxlHq+FV0aIexh4fDmKJIIZPCo+/GRU0tRSndJwKukLjlMUo6e2gODSv5ouRCOSr1AzKZ41HrDeaLL313WFaKou2oOXggh7iZ3yQheCCHuPhLwQgjhpCTghRDCSUnACyGEk5KAF0IIJyUBL4QQTkoCXgghnJQEvBBCOCkJeCGEcFIS8EII4aQq9/fBC8eUc4bYZYtYHXeCVL++vPF8J6rK9/8IccdJwN8K5gwSfzxIsjaAxkMDcHOmR7TaSU3fyuT+g/hg6yWsKhjaBTL6OQl4ISqCBPwtYF4Vw8KXD5KluHDJ/zH6dLtbE95K0rwJTN2aSePnf+XHcb0J8ZQuJkRFcag5eDU+lu98pzP1kQRyAMuK1Uyr+iVfjzvDHX1k8dVDLPKfztRhB8kqxera0ABq1tRjqF2DGiF3tkkdps0AsHDi8FFydA0Z/FQfCXchKphjHYEKeU9aUvLP56/96+APz1PqNeLB3Y0q6M0dqc0UjEYTimomJ0ceiyVERXOoETwmHToFNEZt3gOzTTp0ioLOdLdOeZSCQ7WZgruXO4qaTuoVCXghKppDjeAVdwMGRUHvoS9c1oDeXXf9eNSaSdJ324j67hhJhzOxuLhRrX0oke9G0ii82NPuzVdJ/N9WouecIPloFhYXV6p1CCXynzbr5pxgecNl7E6xCaY/VzOtyurC8tVtzqMx7QnUA7mnWdXiN3acslnfGEy/hL408iyhcuYMjk/fQvQPiZxJzEZ1d8evS33ajm1BaJ3CMC548PfYfrRNi2PD90mkpGnxaBpEy4kdiGznUqQt7GozADKJ+3wYwz+IIrvJi8xaMI5OXrdqtK/g6emBop4gPV0CXoiK5lABj7sxL5zc9CiA4pEXXgYPfdGwUnNIHP8bP0+/hDa0JvVGVEGXcpYjf8SxdGsKuavuo1lw/ivULI6+tYgF36WiDQqk7hBv9JcucGxVHEujznH1j/5ENtCAxp1aQxqiZADmVI7/nERaQCCNunpzLX6V6n64Xjvn0bhSY3BDzCkAVi5vOMiJszeol5rFkTcWsWB2Gob6tQkb7oHmzFkOL97GgphL9F/dk4YBtjVUyfw9hqjAmrR4LwxdchK7vohn3cNX0KwZQKtQm3VL22bXmBNYPGcNx9PMEDOHhXHv0KmLwa7ddGMKGo0WRbVitUrAC1HRHCvgtSa8QtzJ8jfkhZWnG96BbhiqFQ0g9cwhor+5hKZDB0YuiMDHAKCSPv9Pvn3hONvmnKfpeF80gHp4P5u/v4y2bTseWdgCX1PeNrLWbmD20H3E/N9Jmk2vg17nQ5PJXWkCeRdZFyaR0TicHp/Xx1RiWb0Jn9CVcABy2f/IoRsGvHp4P1HzUtHf05GRv0RQ9Vp5f/qTWc8fYfP/mlN/bHWb+TIr6S71eHJOBFW0AGGENbDyzYgE4uadp8U438J1S9lmBXQNGDy6H0smR5ET8RzDWt6qcLeSdS6O+YvjMHu2pUMz/c1fIoS4rRwr4PU16Lp5ZOGyXwMG7mpw3WpKlRD6bKiBUtUDr4J8UvDoHUyg/ignjqVhIS8Ec/ec5VyultrDwwvCHcDUqTFtRmRxooqFbCvob+PVCPOec5zP1VLrofr54Z5f3v71qfPmUQ7GnSNTrW7zMHANVbvUxNtmGt3UriZ++gOcOJaGFZuAL2WbFTLSePQ8YkffipqpXJg1kNDnVpKdXydDja68PucLHglwrMs7QtyNHCvgS8vkgnc9FwCsmbnk5lpRVSDbmjctYbZybYLAkmFGRcHgWWxEqfOh2bTeNLsDxTVn5GItqQxaA0ZXBa6ayVWxufFFQedabNfoNWgBNddaAbc/3oiCqWFfnn42BDMWrp7ZzdoVW1i0cBujewwkUDJeiApVOQPemsWprzaz9sujJJ/OzQt3G7aVcoSZ4JuXwRFKWTbubZ7h4zbXlnLZNbEd90ydwIyn7+e9lpWzewnhLCrhEaiS9v1qfh17Cpf7Iun3mR/uxvyhb/YpNg2PJdlmbUe4g/7mZXCEUt4KOmrUCkBr2c7pZAuVsnsJ4UQq3xGoZnN86SmyXIPpM70lDTxsfnclA1OxrNS66VBQyUnNAVwKf2G+SNwr2zjuU5+e40Nwv43TCTo3PRpUctJyAZuJdWsO2VdVcNOjd4qMV7mSkYGquOLu7hQVEqJSq5SzpBqtArmZZFy2ndpQyViXyFlz0XX1Tfzw1Vs49WM8522+dyBrwx62zT/GqYtajMVbQatFawA1NYvsWzDhrWvqR3W9haRfDpKSU1je9N8PcuKKhirNq+Nyx/Iwm70zRxAZEkTTgVPZmn4rt20l/XI6Vo0nnh6VsmsJ4VQq3wheMRE0uA6uK4+wftAyUobVwsfTSvqu4xw8rOKqh6u2q4eG03FEPAtmbWFuh0Tqdsy/D37lWa541KDbS7W47oY+vS91WuvZvy6WBSPOE1A9b9StiQinxyg/tEDOlr9YNy8l/4Knlct7rGC+wF9vrSMxf4Ou3VrSaaAnSt2GdBi+jwWzo5hzzwnqtvNEOXOWo2svkOlfj55PVbtzf2nNB1gwczF7k81wdgY/7hhDm1t2H7zKlbQrqEpVPGUEL0SFq3wBD7gP7sbQbDfWTz/MniknsZjcqN61Ad2nV2Vfl2Qu2K6smAiZMoih9bYSPfs4R+YnYzG5Ur17Mzr/M5LG9UuIVo07Tab15NIrMfy1LoFz2XlnCrqUGnTND3jzoUR2z03EUuSF6STO309i3htTxbsh9wz0RFFM1J0ykCF1thD1QyIJ85JQPdzx69eavmNbEOp/B8NQF0b/kd358f3N5DR9jAea38r71RVMLiYU63lOnsqC+m63cNtCCHspqlr8HpSikpOTCQgIuFPlEZVcduwEOvaYQrx7E/r260Bw44G8JQ/8EKJCyESpuKWMrd5lwfyxDKqbxqb5M/lqwS5SK+9doEJUajKCF0IIJyUjeCGEcFIS8EII4aQk4IUQwklJwAshhJOSgBdCCCclAS+EEE6qwgI+OTn55isJIYQoMxnBCyGEk5KAF0IIJyUBL4QQTkoCXgghnJQEvBBCOCkJeCGEcFIS8EKI28OazMad0/kkbhtnb8GjL4X9KuUTnYQQji8r4UOG/P4Ll6jGYY84vgy9lU8PE6VxV4zg1fhYvvOdztRHEsgBLCtWM63ql3w97gyVfWDhCHWznPuUNhP98fpxIVeA7INj8B9fg/AVseTe1ne2ciJmAB7j/DHa/Of66XiiLeVZN0/OsbcJHl+LzlHHK6yfmE9PptmEmjRfswfzzVfPl8vmPyJxHeePafLz/JZz81eUSs5vDJ3kj9cPP3O5FKvrq0XS3ssND+92tPXR3qJClE7F9UnHcneM4BVQAJT858Zd+xcneI6cg9RNsX1PpehPb+e7uvv14rEWdfPDL43dB5azq9zrVnLWI2w8dgatyQuX7C2sT8plYPCdHz1rq41k4Wsj7/j7XlMxfdKx3B0Bb9KhU0Bj1KItWFbQme7sqOK2cIC6KXoXXFDQ6YzoAUXnigkFk954mw8nBZ+QF/giJH/ReoiPzqxgV2Z51y3+ysrFemULGy5Ao5YP4rFjNlHHD2EODr9LDvY8FdcnHctdsc8VdwMGRUHvoS9c1oDeXVdkZ1s2beCrgfF4ju1H27Q4NnyfREqaFo+mQbSc2IHIdi5FO4c1k6TvthH13TGSDmdicXGjWvtQIt+NpFF4/ojJmsHOQXNZY4mgc1AiMQvTMHZqTd/ROUS/GkdShjfhU+6lzwMehds2XyXxf9uImXuc5KPZqF6eBPQJp907TajjV3RWrbR1K5RJ3OfDGP5BFNlNXmTWgnF08ipfl1cMnrgrCq5GNxRAY3THQ1FwN7heXwbrOTZuncLkHauJTblIjt6P8KD+jOn2Gg/7uRddX71IzPaP+XD7CrZcvECO3peGdQbwcvcS1r2NNEoq0dHP8Wb0KvZc1eDn353nek7i1eDqRec47SmvPe1QEsshPp/dl7dO1eaNJ5YyqZZLwa/SEzez01qN4fUH4nl0Np8d38oZNZyaxTdamjJY1jD640eZfdVmkurgGPzGjSlY1Po8z7oXx9FGC1hieHXag3yZajPvpevNd2/OZriphHpYk1kbPZnJO9ex8/JlrIaaNKv7IG/0eIm+VQwFq+Uce5v6s36gdo/5vJ49g3E7ojiUbSAwoCcv9JrIS3V8iuwLu/qkE7srAh53Y17ouelRAMUjLxQNHvoSdrZK5u8xRAXWpMV7YeiSk9j1RTzrHr6CZs0AWoXmv0LNIXH8b/w8/RLa0JrUG1EFXcpZjvwRx9KtKeSuuo9mwYVbtx44Q9bzXRjQMJYl47eyVGnJvd/04sQ7K9n67g4a3teFICOgZnPsnUX8+k06rq1DiXjZCyU5mQM/R/FzdCoPruxEsHdZ6waYE1g8Zw3H08wQM4eFce/QqYuhpDVLTTF4Fjl4FGPesqvRtVgAXmLl8kEM3n4MY5W29GnaE9fMfaw+NIMnj+/i/KifGOOb/4dRTWfjysH0jz6Ewece+rXoi2vGLpYdnMGTiQfIGD2Xp6rembOUjMMfMPqylo6NRtAqPZYlB37j3R9OwehF/MNXZ3957WmHEuWyf8vrTDqRS0TnT3jHJtwhhx3HYsnQt6R9zSZ41/LmP/uiiMp+gqG2AVvaMiiBdIwYhiZbBesJ1u6O4pRHOx6uG8y1XqNxb4FvwcygL22bDCPzqhUwc/ToAjZcuUE11BT+XPoAD+5IxL16ZwY2r402fQfL90/lwROHmD36Sx7ytO1BKhf3fcgHnh14ps8DmNKi+TbqR97+4TS6Z37hBZt5/lL3SSd3dwS81oRXiDtZ/oa8ne3phnegG4ZqJQWblXSXejw5J4IqWoAwwhpY+WZEAnHzztNinC8aQD1ziOhvLqHp0IGRCyLwMQCopM//k29fOM62OedpOt63oDMpvoHU7+WHX259an1wkqxeDQlu5YJ3fx+2vX+Rc6dVgoIV1CP72TQ3FX23ToyY3xhvXd52Izuv5Nun97NxVhOCXqlSGN521Q3QNWDw6H4smRxFTsRzDGtZvnAHQFOV2lUDueThhQbQGP0J8gzA3a3oSNRycR7v7TiKofa7rBv5Ik30eXVLOfw293w/lylRGxg1qAdugDV9Ef/eloA2aDybRj5DfS2AhX/ueorIRav4bMceHu/Z7A50YDMJVyJY9sy7tDcCWHl792jaLviDL7dv46X72mOws7z2tENJcs5+zfPrtmMJ/AczOkVgG+9YD7D++AW0/m1pazTiHtQcY9x2Np7KZmiosWC1UpdB05CR9/6HkZB3kXVvFGf9h/HJwCF4UwJNXYb2mspQADKY/+PvbDhUcj0sF3/kg7jjuARPYuOjTxOW32ZJf42m7cKlvL/teQb1aGqzjy0k6fuz/eFnCNUADGKgby7N5y1gZtxenukRUbhuKfuks7s7Al5fg66bbS72+DVg4K4GN1hZQ9UuNfG2GRya2tXET3+AE8fSsJIX2kqVEPpsqIFS1QOvgoxU8OgdTKD+KCeOpWGhMODRadAogEaDRgMaXV430+g1KKoZa/4tErm7z3A+R0vQkHr54Z63Xbe+YQR7HuZA1BmyXq6Cy7VealfdAIw0Hj2P2NF/12B20rbn3y9sL1z2GMK8V4dct1pm8k72WPV0aj6cxgUDVIWqIY/zWvMU1rnmkqaCmwIal75Mf64DGtda1CnYF1oC6vchUvsn61MSyeFOBLyW4Ab9aV2QjRoCGw6mm3EZC84ncFFtT4Cd5bWnHa5j3se0xZ+wleZMGPASzYs1gDU1hk0pENywNTUUBaVWO5po1rH5+AHMoYUBWK4y3CJZZ+LYa9VzT9PB1LNpsxrhg+m2bDmLkv4iRW1aeHaAjnp1OxFccFApeNfpQDPtz6y/mEguNgFfyj7p7O6OgLeLgs61WLPoNWgBNddaeLucyQXvenljJ2tmLrm5VlQVyLbmjRDMVtQyvLslw4xV0aHXmcm8aLMFswa9u4KankO2SmHAVxoqWbmZWNHgYSo2itI0ZNSA/zLK9mf6agRXqwao5OZe4arFkteeZgsaVFSr+Q7duqjgYfQoelqv8cBTr4A5iyy7y2tnOwBg5dyx/zF2VXXMF1fx31MKbXv+h1f9i599qVw6EcVfVm8eqtMg7+D2bk17L5Xpx2NIVCMIUcpahltNJTPnKpYSy+CJl15Bzb1KRrFXueiLXQfTGDCgYrXmcoO7Xe9qEvBlZc3i1FebWfvlUZJP5+aFu42yNqyav+39o2axv4Tfa2uU5c+GY7Cr5GoK0THjeTtmObFpGViKvbik63UVyo7y2r8HrVxI/IlPEvMXNcE0r1GL6yfXsth6NJZMbRh1XZI4kqIArgRVd8V8NIqozGcIcVXKWIZb7+ZlcIRSVm4S8GWikvb9an4dewqX+yLp95kf7sb8cUX2KTYNj6Wsz6vKu6fdQMjY3rRufv0wXfHyxr2SXiUq/UmHlZM7X2TQis34NPwH3/VvSYAuv9LmzUyc9wmxt6mMZWNfee0/+dIR3vkPtndvgvXsNLrN/Ihv/pzBo0+/XnSKxrKX9YmpWM1bGDuzPWNtN6HsYMPJLB6t71LGMtx6Ny+DI5SycpOALws1m+NLT5HlGkyf6S1p4GHzuysZmMrRL7VuOjSAKawGQV2c4D79AgomvQsarKRlpaPiU3j4Wvcz8/eprHUbzKc97yOAVNbGR5Fq6M30QS/zoNFmM9nJVLmjx71KevYVrNh87NuaTlquCjoTRgDVnvLa0Q4l1NPg9wwft1lEr6gZvL5tECva1y04iC0p0WxKhcCG/2JK0yCu9R41YzWTlv/C5mN7ya0fib6cZbg1FFwMrmixkp51BZWqNmVIJzVXRTG43fBCsyidSjoWrHgarQK5mWRctj2NVMlYl8jZ0n+m/Dr6CH98DbmcWpZIps2m1ZMHWX7vr8z/MMmOj6yXJJu9M0cQGRJE04FT2Zpero3ZxSWgBU00uUTH/ci+gs+Lq6QcncW0v/4kKsOIZ94pDFpFAUsK5zNtZ9qtnDuynjjrDVJHccXDAGrWGc7c7PPopV7XwpH439iWXViG0/ELWJutwbd6GNXKUN7St0NJXGjbaSKPe2cRvWEcc1OtBa8/fyKa/VZ37ol4goca3c8D+f8NbjmMHp5w6kQMR6zlKIPGiEmrYM1KJfUWzJ6Y8ssQs3sBhwom0C0k7f+Vtdla6taIoKoM4stFRvBloZgIGlwH15VHWD9oGSnDauHjaSV913EOHlZx1cPVsm46JJx7RsbzyzcrmX0qlHqR7mjTUzm59ChJl7xoM863fDvNfIAFMxezN9kMZ2fw444xtCnnffClpfUZztgW8xgc+yFdpq/j3uC6uGbuY1XCTpKN7ZjSsXPeiE3xokeTHlRLWMa7sx8loVkX6ptySTq9kkUXVapr4UJJb6D40y2sKcYTS3nhm0dYUsM3b4SNjpDGb/FGqM1ItRTrcm3ZZTujZg6nU2gYpiuxLI7fwTl9Kz6IbJ03D25neUvdDjegmDozrvcAlvz0GxNWLuP+B/tRXckg5tgusrUR3FPLtVjDN6ZTLXe+jI9m89WXaOCulK0M2mZ0ru3GT4c/4cF5e2jpltcT9YGPMrV1c4zAlRMzeSfuQP73vZg5mmwG6z6+W/4aGzUAGnzrvcT4RnXQVh3GP5vP5cEdE+j05Rr61K6F9kocKw7vI8VjIJ+2biQBVU7SfmXkPrgbQ7PdWD/9MHumnMRicqN61wZ0n16VfV2SSw6g0lCMBE0eyNCQbUTPOc7u6ZlYTK74tGlEnzciiWhVzu8U0YXRf2R3fnx/MzlNH+OB5nfwO0qUKvS6byHLqk3hw9hVLN+1lVy9L+Ghz/Je99cYXv1aWRT8m3zKMosf70YtZe76DeTo/WhcdxhTB4Uxb8Y24kt8Ay0N2n3N95lvM3bnZn6Ky8aiqoCettWf53XbgC/Futd4ho3jM77mzZg57L2qxc9/IO/3msSr1z7kZG95S90ON2xIqjf8FxPD1vHsvklMaNaJL0L2sv7EFXTV2tL+unsbXWkT1AzD3jg2JGbwVLh72cqgBDCy/3QOL36P2Ud+ZU/+nWKmzI5Mbt0cIyqZF9cze+dasou88BQbd81jY36713V5mLGN6qBVqtDnvoX8XmUyk3eu4fddUajGQCLC/8HXPcZwn4dMMJSXoqrF7/8oKjk5mYCAgFv+xrdru0IIIfLIn0ghhHBSEvBCCOGkJOCFEMJJScALIYSTkoAXQggnJQEvhBBOSgJeCCGclAS8EEI4qQoLePmQkxBC3F4yghdCCCclAS+EEE5KAl4IIZyUBLwQQjgpCXghhHBSDvN98Bnb/8f7C47jXqMxnQf0p2Nt15u/SAghxA1V2PfBF6VyYdZAQp9bSTaguDfmue+XM7V3dXnsrhBClJGDTNEoVHv8dy5fuUDC8rdoq9nHzHEz2Wu5+SuFEEKUzEECPp/WjVpdnmV4KwOW40c4Ub6nSwshxF3NsQIeQM0hO0dFMZowyvyMEEKUmQMGfBqpaSqKhyeeEvBCCFFmjhfw1nQup1nRuHvh7nilE0KISsMBI9SKqgJ6vePcwymEEJWQ4wW8rhEd21bFenA5v2xJ5qrcSSOEEGXieAGveNN/6jwmdDnDJz1D8HF3wcXFBa9un3PMWtGFE0KIysMBZ0FUUuJ+55cNSXhE9GNwq0DcdQq6kAi85KKrEEKUmuMFvOUws9+byb4qT7Js7ad0dqnoAgkhROXkeFM01mROJVvQ+NYk0FDRhRFCiMrL8QJeccfdTUHNSCfjb78lRwghxN9xwID3wNtTQU1PI00CXgghyszxAl7jiaenBmt6Guk3vWvGQsLUjni6uOBe/xXWZ96JAgohROXgeAGfc4rEZAuK0YTpZnfNqClEb9qPGR0NH3mSjnJBVgghCjjMXTQZ2//He/N3cWLrUpbFQ80n+9NKf5MXXd3Cxu3Z4NKRJ0Y2dpzKCCGEA3CQEbxK5r4lfPXVXNad8af3q9+xeEqvm973nvvXRmLSVLx6PcnQ2g5SFSGEcBAOMujNf+DH4/a8xsLhzVEkEcjIUffjIx+CEkKIIirvsFe9QMymeNR6w3mii1tFl0YIIRyOgzyTVQghxK1WeUfwQggh/pYEvBBCOCkJeCGEcFIS8EII4aQk4IUQwklJwAshhJOSgBdCCCclAS+EEE5KAl4IIZyUBLwQQjgpCXghhHBSEvBCCOGkJOCFEMJJOcj3wedR42OZ1XkrF3v1ZMz3YWhXrOb/hiXg8uIDPD3Jv/L/Nbp6iEUhKznStQcv/lgfUwmrWDZt4KuBewufR6soaN1c8G5emyZjWhPZwwNtecuRdo64dzaxZdl50tIsqCqg86HDuiHc0zivlR1hX1jOfUr7GR9xIOxLkoY9gP7gGOrMW0DV9r/zV+9W3OyBX2Vn5UTMIBr/sZUcm59qqzzD6jETaa8t67p5co69Tf1ZP1C71ybWdQiqkH5tPj2ZVjOno9zzB9u7N/nbILCmfkvvaf9ko6Xk32t9nmfdi+NoU+6OeYvl/MbQfz/Ln3U/58SIIXjfYLWK62e3n0MFPAooAEr+0zuu/cvd9jQPBbfIUOo1NgBgTU0jac1B1j98kjNfDmbAEI9ytIiFxA9WsPLHq3i2DaZxqCEvYLRu+Fe12aqD7AvF9j2Voj+9ne/q7teLx1rUxQxAGrsPLGdXudetzBRcq3XlodrX/3HXuLfAt5IfohXTz24/xwp4kw6dAhqjNm+UatKhUxR0JkcbGtxuGrz7t6H3i14FXcxyaA+/9trEwfd3cXLAPdQ2lnHTlnSSd14B34b0WdSF4BttxwH2haJ3wQUFnc6IHlB0rphQMOmNt/nQU/AJeYEvQvIXrYf46MwKdmWWd93ir6xMFDyDn+WLfp0wVHRRbrGK62e3n0MFvOJuwKAo6D30hcsa0Lvrrm9o81US/7eNmLnHST6ajerlSUCfcNq904Q6fvljDMtltvaZz7rDwQzc1ZsGXrYbsHJ6/I/M/RLarBhGlxaa0m+Xa1Mp8XiO7UfbtDg2fJ9ESpoWj6ZBtJzYgch2LnllzjnB8obL2J1i81yVP1czrcrqwnrXbc6jMe0J/JtzQW29BkR0ieHYsrOcPqlSO1Sxq7yFVKxmwKRD/zdzA3btCwAyift8GMM/iCK7yYvMWjCOTjd7qO5NKAZP3BUFV6MbCqAxuuOhKLgbXK8vg/UcG7dOYfKO1YlNtHIAACAASURBVMSmXCRH70d4UH/G/H97dx4QVdXwcfx7Z2UZFkF22RdFRdz3BU3TTHErS01bLMueNp+etqdHyzafyqdsscW3xaXIzCW3SlzIBRFFcUcQFVBEFFFA9pm57x8DMigaA2ojns8/NePlzLnnnvvj3HMPcwf8kwc9dLW3l8+TsOtD3tu1jh3n86hQuxPuP4Ln76pj25tIIRWwfftUXt6+ngMlCjw872LqoLeYFuhWe5RsSX0taYe6GI7y6YKhvHLKj5ceXcNbvrb13yHjcT76th//zruHH6fNY0ytOchKEmP70X+7xD+f2Mw7PlXRY8xlS+L/eH/PepLyL2C08aNz2AReHTCZfg418XR5WmvgYv5V/iUzdsdztFyDt9cg/nH3TJ71dzW1mWEjUz6cyIISY81Hpz6Hx4znLr+8ckrJon52m7GqgEenNYWIvRoJkBxMIaNxUF9xgpZz4rUVLP22CLuuIUQ+74SUk8ORJfEs2V7AfbF9CXQGlE6EDHVl8zunOLq1klbDzBJUf5702ELwa0dohMKycmsqQunKBOK9W9Dx7TBUOdns/TyFuAcvodg4gs4hEih0+I4NRyoG9AVkLMmm0MubNv2dL8+lS24e2FkwEXt5tqS+9TUWkTprN8dzZZDLyT0pI5efZMe0OOyrP1dpT8hLXQj1liw7FpfbM41VCzeSUaiHhIUsT36NvlGNG+tJGsdaJ5qkNb2209pdEYAXiP1tFGN2nUDbrDtD2g3CrvQQG45+yWMZezk3+Weec6869nIRW2LHEL39KBrXPgzvOBS74r2sTf2Sx7KOUDxlEY+73JqrlOL0d5lyUUnvNhPoXJTE6iO/8vqPp2DKCl50V1leX0vaoU6VHN7xL97KrCSy30e8Zkm4Ayj8GdqyNTNObWX1iUuMCdfV/JvxCL+nZYHzEwzzrN63Ajb8PprRO7Nw9R3Fo739URUmsnT/TIZnZrD8ifcYaGve22TOH3qPdx178eSQ0dgUbue7+J949cfTqJ78hX+4KkHypnfkOBTlMhgz2bQ/nlMOPXgwOPDylceVU0r17me3IesKeKUNTkE6yjw1poZ2tMfZ2x5N89pBIR87zNZFBagH9GXC4rY4qwBkuvSL5bsnDrNlfgQBLzRDQsJlSCBus3Zy4vdsKocFXL5hIqdncuyYjNPjgXiqLS23mpEi21AeWxhJMyVAGGGtjHw7IY3kmHN0nOGOQuVKxKz+RIDpJuvybIrbtmbgp3XfZL0Ww9Ej7P1Tj+TtibevZFl9jaWcWZXCvjSzUQ35pP+YX/NS5YpucueagK/nsaj5+VaMmTKc1bPiqYicyrhON+BCXuGCn4s3FxycUAAKrScBjl7o7GuPRA3nY3h793E0fq8TN+kZItSmdshPf5U+Pyzig/jNTB41EHvAWLSC/+5MQxnwBlsnPUlLJYCBf+99nC4r1vPJ7gM8Mqj9LTgx9KRdimTtk6/TUwtg5NX9U+i+7He+2LWTZ+/ticbC+lrSDnWpyP2ap+N2YfB+kS/7RmJhvANKQlsNpk3cbDYcSaA4fNDlzzLkbeD38zK+XYfQser3kSH/R97afQLb4FnEPfQwAQpTOzwb9CSdl/7Am0mT6d8nxGxRgYFsdTS7HnySEAXAKEa6V9IhZhnzkg/y5MBIVIpwJt3zPyaB6SbrwXhyPcfx0chr32Stbz+7HVlXwKt96L9tUs1rj1aM3Nvqqs0q95/hXIWSgLGhVaEGIGE/NIxAx3SOxJ+h7Plm2EoghQYQErqL7RtPcLIsgCAbAJmLsRmcM+roMNTjcgeypFwTBS5RLXA2G/DZ9GiBh/oImScKMeLewBGAkYurEll33BSScmEhpzac4nyxPeH/a08LjYX1VbnTL3Eq/QAMF0gYuJgtFyKYsKs3La41oKvnsaihpe2UGJKmNGiH66bsyX//savmtcNYYqaNvWqz0pw9HDCq6dthPG0v74+ES9Aj/LNDPnF2lRTKYC+BwnYoc6f2QmHni//l46bEq+UQuij/4M/8LCq4FQGvJLBVNF0v3wNR4B0+hgHatSw7l8Z5uSdeFtbXkna4iv4Qc1Z9RCIdeHPEs3S4qgGMnNk1FoddV7ytCOD5x7bygZ/pA5XNB3Nv84+Ylf4H8ZWDuFsNYOBE2noOyZ483qrD5ZF0yendHDBoGBA5sircTe3g0eo+BtmsYVlGEhd7h+B6ub4qQoP7Enh5Wwln/160Vy7hz/NZVBLZsONWz352O7KugK8nQ7Eeo6RCrdJTet5sbluvQK2TkIsqKJcxBbHKhdAhziR8ksXRRANB/ZRgvMSxdXnI7uGEdlE2rFwAJFR2VzShWoESkCuNGGkomeJdR9lr1uc0LYPp+04vug2sGVVYXt+mSKasshQjChxsrhhxKcKZPOL/mGz+nro5gc2bAzKVlZcoMRiQAfQGFMjIRn0jjpslJBy0DrUHAAoHHNUS6Msos7i+FrYDAEbOnviG6evd0J9fz/+dkug+6H9M86zr6kvC3n0wDwV61S5bcqWXg9leKFoyrGUQ72/bxJqT5dwdpAU5h3VpBzHqxhHtW122THllKQZs0ClLySsxW4NpUGKvUWAsL6AIcDX7OFu17RX7pkGDjNFYyTVWcd7RbsuAlwGMZRyePJ/Ddfy70scs7FDgPjQA50+TOf57LoZ+3ihyM0nfY8R+bCAtzFaRWFbuzaTE5+1xPPSME2Tu56ceWznt7El4/9pr4K2nvn8vi/ZSzmd7whu8mvAbSYXFGK74YUumzW4JC+pr+dE2kpf1Mx9lVb1UBNLBx/caq2QkHPwfY/a9f7WKRkVEq0EEbfuKP44kUxHUHVXRRtZk63FrN4QeZokjA8gXWbykPYvrKEnjJDdgnwRzt2XAm9ZnawiaPpiuHa4enkpOzujMBxXtAgnxTWZX7AnOvO1Ns7gMsitsaHWvV60GsLTcW0Hya0mnYUmcXH6AXfFtubtvTY2tsb5/h/pfoBg5uecZRq3bhmv4i3wf3QkvVfXqqW3MjPmIpJtUx4axrL6WX6ipaN3P9IdOxtw5DJj3Pt/+8SUTn/hXHVM09af2GsJQ56/4LO0Pdg/uRsix9STqXRgT3q3WvL6p/zpy911fMc3n6g9U2ATj2aSvPm++2zLglfYqFIBNmA8BUfVY8aB2I3Swjl3fZJJ+oCNu63LQNwskrGftCWiLy70VJC0hU8JxWbGHQ5+n0aN3a6qviK2yvrechI3aFgVGCsuKkHGtCTrjYeatnM0m+zF8POhevChgU0o8BZrBzB31PPeZ/w1AeQ7NbmmYyBSVX8KI2feFGIsorJRBZYMWQLakvha0Qx37qfF4kg+7reDu+C/5185RrOsZ3PBwULZneEtvPkvcyG9nnqVtaiKltkOI9rerVV+t2hYlMi5uvRgQ3NA/7BCu57Yc36kjPXHXVHJqbRalZtdw8slUfrtnKYvfy676q8JqSryHBuAgF5AZm8bx7ZVoo4Lw0zW2XAsplSg1IBeUUW7BRK+yYxs6dFNRHreP5P01M403vb4WKefgvAl0CQqg3cjZJBbdsg/G1qsjEYpKtif/xKHK6ndl8o/PZ86+P4gv1uJoGi6ilCQw5HOu1PwAGDl77E+SjddIeMkOBw3IZWc4U1n3JpZva+BYyq/sLK+pw+mUZWwqV+DuFkbzBtS3/u1QF1u6953JI85lbN88g0UFjbkToaZLq4F4k8GfaUtZl1mCc/AQ+l2R4XbenWinLGFbShx5Zv3XcHEJT357L0M2ba+5F9EQCi02SgljWQEFd+hcz205gpeCWtNnUgq/fBvLglMhhHbRoSwq4OSa42RfcKLbDPerdkzZNZAg94Mc+D6Zixc0BNzrw5VjhoaUaxG1O/5d1RyOS2LZhHN4uZlG3YrI1gyc7HHt75hRONJ2ShDbE46yd24GXecFYyPdgvpaQn+EZfNWcTBHD7lf8tPu5+jWyHXw9aV0Hc/0jjGMSXqPqLlx3BMYjF3pIdan7SFH24MPevczLdeTnBgYMZDmaWt5fcFE0tpH0dKmkuzTsaw4L+OmhLy6PkDyZEBYO7SZa/jHtw+x2se9qu+oCGr7Ci+FmI2W67Et1a9tdzF53nj6hoRhcymJVSm7OavuzLtduprmuS2sb73b4Rokm37MGDyC1T//ypuxaxl233DcLu+YTOGJr3jm11/r+KqCAbw0YJjZ6hbQ+g5hiG4hC3Z9yYlSHQPCe+N45XFzmcCMTjGM2jmVXgXDifb1QVt+nK0pv5NYGsS0gZGNuyeibE8/P3t+Tv+I+2IO0MnedDaovScyu2uHq87/+jOQNrsfnafvxuj3JGv2ziHK8jWlt8RtGfBIWgJmjeSBoJ1sX5jB/rmlGGzscO3WhiEvdSGycx1r/7RehA20Zd+iYkocggiLquPwNqRcSyh0RMwZxIUXEtgXl8bZctOwQpXvQ//rBTxgM7gdEcHpJK7ey770ILqFSje/vpZQhRE96S5+emcbFe0eZnSHW/jZUjPuvnc5a5t/wHtJ6/ltbyKVandahzzF23f9k/Fu1XWR8Iz4mLUGD16PX8OiPzdTofagbfA4Zo8KI+bLnaTU+QFKWvX4mh9KX2X6nm38nFyOQZYBNd3dnuZf5gFfj22rOYbN4BO+5uWEhRwsUeLhOZJ37n6LadV/5GRpfevdDtdsSNzC/8PMsDieOvQWb7bvy+eh1X/+LVOSt4kFdfwGVLo683D/YQSav6nqSnSIK9/uOUOe9l6GB18Z74DkxF33LGeNy4f8d/d6Fmw/T7nKjVZ+E/ms34tM9r3er6N6kLyYFD2X9FVvs+DYUg7ojciATWlvZjUm4OV8tm89jB4VbR56jN5WGu4AkizL1714ycnJwcvL61bVRxAEwboVr+ax0AdZXNab2cm/87S/9c50W2/NBEEQrFDlvi0kFMo43f0YD/hZd4Rad+0EQRCsioH0bfFk482YycPM/srWOomAFwRBqC85j4StKcih43k0qpH3CG4BMQcvCILQRIkRvCAIQhMlAl4QBKGJEgEvCILQRImAFwRBaKJEwAuCIDRRIuAFQRCaKBHwgiAITZQIeEEQhCZKBLwgCEITJQJeEAShiRIBLwiC0ESJgLdm+mKyFu0hMSaHYsNfb/63lysIglW5PZ/odIfQr09g+fOplEm2XPB8mCEDbsyDtW9WuYIgWBerGsHLKUl87z6X2Q+lUQEY1m1gjssXfD3jDHU+ArjkKCs85zJ7XGrjHs5rpZQhXrRooUbj54NP0HUOlYXtUO9ybwKLj/FNYDj7Md1meuL003IuAeWpz+H5hg+t1yVh/pxs0/ueaGcO5N1cs0sdfSyPved1+edviYpfeeAtT5x+XMLF621nPMvWHa8S/UVHPN/2xem9TnT78Q0W5hRS59fG1rfcm1VfC9T3uAk1rGsEL2F6tqVU9S361f/Fyr9V/yaRQttw3/42t0259ftw6zjGkvlnSrXfvYrhCEsPHuYVjwgrO2GuIBew8Y/RjEo8jo1rb4a0G4htWSpxR+cx5bs95E5exkuet+ZB6DeLRcdNsLL+aqNCJYFCqzQ9gNpGhUqSUNmIKYQmwwqOsaS2xRYJlUqLGpBUdtggYaPWXh0VkguBznqOHlpJclQEXay4KxoLV/BB0jHUAW+wdeJTtFQByBRlvU3U91/x0dZYnrx/GHU8/vq2YNFxEwArC3hJp0EjSagd1DWvFaDWqWoOYEUmv4WvZX++2QXnHxuY02xDTTnBHZiY0BNvNVCZw8YuK9jj2Z2xz5Sz463DnMyoROXjRsjkHgx42hs781kKYynZ3+8k/vsTZKeXYrC1p3nPELq83oU2rWueSm/YupmvRqbgOH043QuT2fxDNvmFShzaBdBpZi+69LCt3ekuniX5rR3s+T2X/HMVGJVq7EO9CX+uJ33GunB5XFV5mvUdf2X3KbP90wYyPG0obczPTIvboZ7lVtMXkzF3B9t/zOJMVjmyTodHVEu6T+9IiH9NylnaDvU6xrWUkvzpOMa/G095xDPMXzaDvk6NO50ljSM6ScJOa48EKLQ6HCQJncaujjrIdAobSEnSGpZkv0IXP/XVBVYz5rIl8X+8v2c9SfkXMNr40TlsAq8OmEw/h+pTrZw9ccMZ8Gcqrfuv5c+otpePvfHiD4z88mU22j3K2qfeIUq1iSkfTmRBidnkVepzeMx47vJLpevTxD0zg25KMFw8xnGjilYhAwm5fGZLOLQYz7Ptj7FareeiDI7GjRaVa2qG8yTs+pD3dq1jx/k8KtTuhPuP4Pm7/smDHjpTuxkaUG692qwhx00AKwt4dFrTyW6vRgIkB1MYaBzUNQdQocN3bDhSMaAvIGNJNoVe3rTp70x1n5HcPGqHNiCfSSPuQyeCnu5He8cycmL2sOuNNZwvH81DLzY3/axcQdYbv7Jk7gWUIS0IndAMVX4ux35PZk1iPpXr76V9oHlXkildmUC8dws6vh2GKiebvZ+nEPfgJRQbR9A5pGpbuYTDL6whdlUljj0CiYi2Q1lZwrlNGeyauopimweIjrat2j87fMaEo88HMHJxcyqZuXW0laXtUN9yAeQyjr20gmULCtG09CNsvAOKM7mkr9rJsoQLRG8YRLhXA9qhvsfYnD6NVQs3klGoh4SFLE9+jb5RjZtmkDSOtYJB0ppe22ntrr4pJZcjtRjBsMOr+fXALt7264lNnW1WwIbfRzN6ZxauvqN4tLc/qsJElu6fyfDMDJY/8R4DbSVAS8fe7/N8ykg+iJ/O1xG/8KyrCuSzLF33PuvLfXn8/pfpp5XA6E3vyHEoymUwZrJpfzynHHrwYHDg5V8KCl1H3KsaTmHvjrtkIONMCgVyCC7VDaoI4ZERC3jkcgNYVi5yEVtixxC9/Sga1z4M7zgUu+K9rE39kseyjlA8ZRGPuygbUG5926wBx00wkf/C6dOn/2qTG6filLyp1wL5p8/Oy0ZZluUzKfKKyIXy2lUVdW9fnCYv9/hc/vDBI3LpNcs8LW+InCvP8vhFTkgz1LxfdkaO6/aF/N+wTfKxqh82nj4o/+Q1V/7fsL1yXnn1hka58Kff5DkuX8hfv5krV5eg3/Kn/LnL5/Lse/bK+fqaYkt/3yB/7vKFPG9mzbZySbr8q8/n8geDkuULZtvKZzPkzY/9Lq/65LRcWXfl5UMTvpRneayVDxZcawfr2Q4WlGtM2y0vcP9c/ih6r3zevB0W/yZ/6vKFPO+tsw1rB1m2/BjLZfKBr8fJnQL85IgRH8o7Cuu1g9enj5df+byzPGRbqqyXZdlY+LM87qOu8hOHimp/8pFnZY8ZfvLY/eflTas7yvYfviRvqJBluXKd/Oi7nrJjzDK5+if0eXPlPjO9ZPcF8+UTl3fYIJ/Z/7jcYkYLudeWo7L5oS/OekfuONNL9lz0o5xlNMrnjzwvB7/hLYesWC+fN9ZR5/IV8tiZHrLjDz/LF661X8YT8hffBcvaN9rJ92z8TT5YfK02taxcQ8EC+Z63vGSX776Sj1zeCb2cnfyI7D3DR24bm3x1/61HuZa2WX2Pm1DDukbwah/6b5tU89qjFSP3trohRSsCfAkINPs9r21OQA8bEmMucP6MTFCAhNQsiCGbfZBcHHC6PEiUcBgciLf6OJknCjHgbjZaUOAS1QJns3lZmx4t8FAfIfNEIUazbWUAlVRzTxHAzZ++3/rfkP27kfQHznKuUonv/S1xMW+H6Jb4v3yc1OSzlMpu2NdcVtW7HSw/xlraTokhacoN2jkAZU/++49dNa8dxhIzbew1NzfIGnq2HYrP7pX8fOIN7gq6epuS07s5YNAwIHIkAZd3VoFHq/sYZLOGZRlJXOwdgmtVm9n5TuOz7rEM3v4+0/c74/rnUk47jOHnu++qGXlbSgpgyujPSVv8PF9vfpROW5sR5j+IURHjmRLZHZ8Gnu0K26HMndoLhZ0vNbNzSrxaDqGL8g/+zM+igvYWTwdY2maWHjfB2qZobiZbFepaJ44C15Fd6Beowqd6TtfGFudQ01SJsbSSykojsgyUG03TB3rjFUvNJFR2VzShWoESkCuNNcv+bLwI7W9D6todxAw/S2gfd9zbNsejozvu3teYmvgb6YsrMSKhcbxivlmpQWsnQYmeSplaqxjq1Q63Ma3vCEY5zeeHA1soDLryTqtMeWUpBmzQKUvJKzFbUmlQYq9RYCwvoAhwvfwPdvTs9z5PHbmfuav+gdrQnPvvn84wu8b1BqXTED5+IpEn0ley5NAfrE5byfvHl/JV0lQWT/wP/RtSvro5gc2bAzKVlZcoMRhM54HegAIZ2ahvwDFuSJsJlrpzAv4qEg792tK9n9lbxjJOfbWNTV8cJ+d0pSnczTS4sSQ72nw+nErPHexcmk7S9jTT+wo1zoM6MXRuJ/ysqBfXuV7awi2aHGV77mvjz+dJv7K+7H6UUu2glAHkiyxe0p7Fdfy4xkm+utW0nRjXJogvNqdS6TiGh0Ldbswve4UzrcMe5s2wh3nTmMf2+GcYu+ErHl/fi70jBuBgaXlyPtsT3uDVhN9IKizGcMWO1HlPoj7FguVtJljkDg74K8kU/rCBpdNPYXtvF4Z/4oFOW3W6lZ9i6/gkchpTvJM77T+Mpv37ekoyL5B3+BwnftzDrj8SWfWWG1M+8cNaVij/dchY2zXHraCifUQ0Ydu/YcnRobhdceaY1vY7cvddXzGtjrkQhU0wnlc0mz5vPq/sSMfeNRi7C7/wn20T6T0gEtsbWW1Fc3r2epcXUqKYfmQtO4YNYJBFSz2NnNzzDKPWbcM1/EW+j+6El6pqPkW/jZkxH5HUwKo1pM0Ey4iAryaXk7HmFGV2gQyZ24lW5sOcS8XY3KiOplBhF+iGX6AbfgOdqOiykuRdOVzQ++FhJUdDZa9GgUxFYSVglgbGCspLZLBXXzHddWdQuUdzn9tnfHRwOyNqNYCEVm2LEhkXt14MCNb+dWHG4/zfmg/ZZoxk5gOf4bTuHl6If5n/ha/iP171+Pmr6Nmz7VGmHXHjqftnM87J7H6T1BwPewk5t4CLRmod0r8kF7ApJZ4CzWDmjnqe+8yrVp5Dswb3gwa0mWCx23t1kVKJUgNyQRnlN2CiV6GUoLKU4ovmF4YyxXFZ5OobXq4xZT/LB/7C0jm51CqmpIzSMhofmDe4HVTtPHBTG8j+JZX8iup3ZYpWppJ5SUGzDm7Y3rKAL+fgvAl0CQqg3cjZJBbdqs+tgyKU0W1bU35iI/FX9Ac77060U5awLSWOPLPuY7i4hCe/vZchm7abfY2EgeNJ/+bNE2VE9HyP5zyDeeye5+kmHeB/q79kX119TaHFRilhLCugoM55CyXetgYOnFzGnJ27MO/CZXlLiMnUo3INJ/zKcP/LciXTdJQhn3Ol5p3LyNljf5JsvEZH+MtyLW0zoSGsZMzYQGp3/LuqORyXxLIJ5/ByM/VeRWRrBk72sGiggmRDwBh/7GKP8eeoteSP88XV0UjR3gxS02Xs1FDSwGoqgr3wMCSw9Z3VfL/FH98gLQp9Gee3ZJCZp8L3hSCaVVW2Ysc+4mLyq25aGbl4wAj6PPa9EkdW1T1PuwGd6DvSsWaipB7tYFG5weH0Gn+IZQviWdgnk+Aejkhncjm+KY9Sz1AGPd781o0M9EdYNm8VB3P0kPslP+1+jm6NXAffcEpC24ygY9zb7CiUsfEx+xeXCczoFMOonVPpVTCcaF8ftOXH2ZryO4mlQUwbGHl5rtpwIYbnN26huPmTfNynvel99yf4uNevRP35Kc8lDGZ9n/DaU3bK9vTzs+fn9I+4L+YAnexNp67aeyKzu3ZAi4RnxIu8kJTIe9vuJ+Job/p7e6EpS2db+i4yDL5MGjCJNlceuL8qV3JiYMRAmqet5fUFE0lrH0VLm0qyT8ey4ryMmxLy6myqv6qvZW3WMAbSZvej8/TdGP2eZM3eOUTd0Pkv63d7B7xCR8ScQVx4IYF9cWmcLTcNA1T5PvS3NOAB3ZgBPFBuz59z0znwwUkMNva49W/FXXNdOBSVU3dHrg+NGz0XD0M1cyd7Y4+z/089skqNbYAbEW93I+op58thrT+axf5FWdT+Ft8ishYfJgsAiWbO4fQxD/h6tINF5Uo2BH8wkrH+O4j/MYu0mGxkBx0ew7sydHpHQm7lxKgqjOhJd/HTO9uoaPcwoztc5y9JbwGlyzDub/FfEjMrav+D5MRd9yxnjcuH/Hf3ehZsP0+5yo1WfhP5rN+LTPa1N20nn2Lh2vfYUO7PlLHT6Hk5xTV06PUuTx8aw8ebX+Hzlsv4p7vZvkpeTIqeS/qqt1lwbCkHqlZ02ZT2ZlZVYKLpxPSHVxK8ZQ5fH97O6n1bkTVuhPlPYnbvF3gqsI6buH9ZroRnxMesNXjwevwaFv25mQq1B22DxzF7VBgxX+4kpa6Gqk9969tmDSXns33rYfSoaPPQY/S+w8IdQJLlK9eK1JaTk4OXl9etqo8gCMKNUbyax0IfZHFZb2Yn/87T/rf3jHRD3Hl7LAjCHaFy3xYSCmWc7n6MB/zuzKi7M/daEIQmzkD6tniy8WbM5GE1fw17hxEBLwhC0yPnkbA1BTl0PI9GNXIu/zYm5uAFQRCaKDGCFwRBaKJEwAuCIDRRIuAFQRCaKBHwgiAITZQIeEEQhCZKBLwgCEITJQJeEAShiRIBLwiC0ESJgBcEQWiiRMALgiA0Ubf398ELd5aKMyStXcGG5EwKPIby0tN9cblDv0RKEOrjzgp4fTFZP6WSo/Si7QNe2Fv6RBDhbyMXJTIrehTvJl7AKIOmhzdTpoqAF4TruaMCXr8+geXPp1Im2XLB82GGDBAJf3swkh3zJrMTS2n79FJ+mjGYIMc7qusKQoNY1Ry8nJLE9+5zmf1QGhWAYd0G5rh8wdczzlDns6RLjrLCcy6zx6XW6+G8yhAvWrRQo/HzwSfIqna9cSxsh/qw+FjcIWGRugAAG6ZJREFUVAYy049ToQpnzONDRLgLQj1Z15kiYXpmpFR13V3936ufJNmw4kPbcN/+NjekrCbvJh8LSyuj1dogyXoqKq777daCIJixrmGsjQqVBAqt0vTAbBsVKklCZSOmUm45qzoWEjonHZJcRMElEfCCUF9WNYKXdBo0koTaQV3zWgFqnapm3FiRyW/ha9mfb3ai/7GBOc021JQT3IGJCT3xVgOVp1nf8Vd2nzLbXhvI8LShtHE0+3BjMXtGLWKjIZJ+AVkkLC9E27crQ6dUsH1aMtnFzrT+4B6GjHaoqYu+hKxvdpKwKIOc4+XITo54DWlNj9ci8Pe44nenvpiMuTvY/mMWZ7LKkXU6PKJa0n16R0L8a0LTsG4Dn41Lx+ODh3jwcV3NZ5UcZUVQLMcGDuK5H8LQWNoOABfPkvzWDvb8nkv+uQqMSjX2od6EP9eTPmNd0Fh6LGopJfnTcYx/N57yiGeYv2wGfZ1u1GhfwtHRAUnOpKhIBLwg1JdVBTw6rSlE7NVIgORgChmNg7omVBQ6fMeGIxUD+gIylmRT6OVNm/7OVMek5OaBXXW+KuzwGROOPh/AyMXNqWTmXrsKxiNnKHs6ihHhSax+I5E1Uifu+fZuMl+LJfH13YTfG0WAFpDLOfHaCpZ+W4Rd1xAin3dCysnhyJJ4lmwv4L7YvgQ6VxUql3HspRUsW1CIpqUfYeMdUJzJJX3VTpYlXCB6wyDCvSwMQ0vbQS7h8AtriF1ViWOPQCKi7VBWlnBuUwa7pq6i2OYBoqNtLTsW5vRprFq4kYxCPSQsZHnya/SN0tS1ZQNIKBRKJNmI0SgCXhDqy7oCXmmDU5COMk+NKVQc7XH2tkfT3CwoVK5EzOpPBJhGtcuzKW7bmoGftsSmzjKdaf1mf1oDUMnhh45eN+Ald29a3u2BR2VLfN89Sdnd4QR2tsU52pWd75zn7GmZgEAJ+dhhti4qQD2gLxMWt8VZBSDTpV8s3z1xmC3zIwh4oRkSIKcfJj6mAHWf3kz6JRIXjWnbop//YP7Tx9j2TQdaTnezbL7M0nYoy+HohlIUnXsxblV7nKt/C5zLZMurKRRkXESPbU2HqM+xqFWfVoyZMpzVs+KpiJzKuE43KtyNlJ1NZvGqZPSO3enVXv3XPyIIAmBtAa/2of+2STWvPVoxcm+rW1sHlQKFBCgUKBSgUJnGqwq1AknWY9SbNqvcf4ZzFUoCxoZWhTuAhP3QMAId0zkSf4ay55thK4H+wFnOVSrxvb9lVbibtnWIbon/y8dJTT5LqeyG/U2+fykDqKSa+6UAbv70/db/6o0tPhZa2k6JIWnKjalp3vyRhEyNpRwACY1Pf/618HMe8rKu20aCYM2sK+BvI4ZiPUZJhVqlp/S82bSBXoFaJyEXVVAuYwr44kqMSGgcrxh9KjVo7SQo0VMpc3MXqNh4EdrfhtS1O4gZfpbQPu64t22OR0d33L2vMe3yt5GwCR/KE08FocdAyZn9bFq3gxXLdzJl4Ei8RcYLQr2IgG8gGcBYxuHJ8zlcx78rfeTa2/51aTeXZEebz4dT6bmDnUvTSdqeZnpfocZ5UCeGzu2En+vNr0Z96bo9yYfdql9VsndmD/rMfpMvnxjG251EtxWE+hBnSgOZ1ohrCJo+mK4drh7/Sk7O6BRm2/51aXX8f12bNmKs7eRO+w+jaf++npLMC+QdPseJH/ew649EVr3lxpRP/LhRM+c3lgofXy+Uhl2czjEguq0g1I84UxpIaa9CAdiE+RAQdf214Sp7NQpkKgorAbNtjRWUl8hgr0Zd/fdE9mo0CpnyixW1Cyksp0w2ldXolegKFXaBbvgFuuE30ImKLitJ3pXDBb0fHlbZI2QuFRcjS3bodNY1mSQI1uz2ns1UKlFqQC4oo/wW//28OtITd00lp9ZmUWo2wyKfTOW3e5ay+L1squ7HomrngZvaQPYvqeRfzm2ZopWpZF5S0KyDG7ZVuaUI98DTzsi5X1M5XVy9rYFzi1M5XanCs2vzqw9aPdrBmLKf5QN/Yemc3Mv1AqCkjNIyav2SaZhyDs6bQJegANqNnE1iUWPKupKRootFGBWOODrc3l1WEG4lqxyv1ZvaHf+uag7HJbFswjm83ExjW0VkawZO9kAJVOzYR1xMftX3pxi5eMAI+jz2vRJHVtU9T7sBnegbbdm4WApqTZ9JKfzybSwLToUQ2kWHsqiAk2uOk33BiW4z3C83rhQcTq/xh1i2IJ6FfTIJ7uGIdCaX45vyKPUMZdDjZqHtGkyPqfs48WEyP/c7R1hfJ6STpzkal4/cqgM979ddPYlTj3ZQBHvhYUhg6zur+X6LP75BWhT6Ms5vySAzT4XvC0E0a8ylgf4Iy+at4mCOHnK/5Kfdz9Hthq2Dl7lUeAlZcsFRjOAFod5u74BX6IiYM4gLLySwLy6Ns+WmobQq34f+VcGmP5rF/kVZGGr9YBFZiw+TBYBEM+dw+kQ7WPbZkpaAWSN5IGgn2xdmsH9uKQYbO1y7tWHIS12I7Gy2YkayIfiDkYz130H8j1mkxWQjO+jwGN6VodM7EuJpHloqvF6J5kH3HWydd4LUH7LByRHv8b3p/Z92+NZVzXq0Axo3ei4ehmrmTvbGHmf/n3pklRrbADci3u5G1FPOjVtJowojetJd/PTONiraPczoDjdyvbqEja0NkvEcJ0+VQUv7G1i2IDRdkizL113CkZOTg5eX162qjyDUqTzpTXoP/IAUXQRDh/cisO1IXhEP/BCE6xITmsJtQdv5dZYtns6o4EK2Lp7HV8v2UiC+tUAQrkuM4AVBEJooMYIXBEFookTAC4IgNFEi4AVBEJooEfCCIAhNlAh4QRCEJkoEvCAIQhP1twV8Tk7O3/XRgiAIdwQxghcEQWiiRMALgiA0USLgBUEQmigR8IIgCE2UCHhBEIQmSgS8IAhCEyUCXrg+fTFZi/aQGJNDseGvNxcEwXrc3k90Em46/foElj+fSplkywXPhxkyoNGP/BYE4Ra5IwJeTklifr9Ezt89iOd+CEO5bgOfjUvD9pnRPPGW5+1/GVNylBVBsRzrP5BnfmqJzZX/XpHJb+Fr2Z9/va/+VxI6bzJj7q/9qD1liBctWhwnS+mDT9Bt31I1/qrNqlhD3zGc/ZieX77PkbAvyB43GnXqc/jHLMOl50r2De5M9RGrOPEqLefP5/TlwyyhUOrwcG3PkI7P80b33ngpAMNGpnw4kQUl13tSvZbh9x1iaTsdxoLvGDzn32yp6wpO8uKpR3bySaBZv9Gf5I/tHzB7bxzJFwowan2ICBrFtAHPMaq5be2fN55l686P+HBPLDvPn6NU6U4r/2H8Y8CLTPRyrPUYyfq2g1Djjgh4JEwdRarqLtX/bdxTSG8fCh2+Y8ORik0v5YJzHF1zDkPLAFp1tqtqBQUegVfHlRTahvv2t7mVtbUuVtJ3JPPPlGq/W5sSD99ohns6IAHGyvOkZGxi/rpx/Jk7j80j78FD8qZ35DgUVc/ulcsOsiblAOVuAxndwq3ql5aa9i6myJQ0YdzTcTzBtQK+gH1Hfie53BFnrVk95NMsXh7N5EN5uHoPZkJ3PxSFSaxOmcP4E/v49PGFPOFaFTtyARv/GM2oxOPYuPZmSLuB2JalEnd0HlO+20Pu5GW85Fn7we31bwcB7pSAt1GhkkChVZoeQG2jQiVJqGzukOkGlSsRs/oTUfVSTkki9/c8yqI6MuQ9r9v/CuZmsoK+I6ltsUVCpdKiBiSVHTZI2Ki1dUSbgsDWr/BZr4Ca41pxgFkLRzJz3yzmdhvEW97hTLrnf0yq+mfD2Y/Zm3qIC8HPMPeebleNhCXb3vxzeO+aN+Q8NsZOYFlFC+4b8R3/9q6JkcqT85h5+Czubeay7b6R+CgAZP5z9BX6/fgD72zbwoQRA7ADjIUr+CDpGOqAN9g68SlaqkzbFmW9TdT3X/HR1lievH8Yjg1qBwHukICXdBo0koTaQV3zWgFqnerqjqEvIeubnSQsyiDneDmykyNeQ1rT47UI/D2qThnDRRKHLCYuPZCRewfTysm8ACOn3/iJRV9At3XjiOqoqH+5gGHrZr4amYLj9OF0L0xm8w/Z5BcqcWgXQKeZvejSw9ZU57qmXf7YwJxmG2r2O7gDExN64m3ptWvladZ3/JXdp8zK1gYyPG0obRzNtjMWs2fUIjYaIukXkEXC8kK0fbsydEoF26clk13sTOsP7mHIaIeadq5nO5i2LSZj7g62/5jFmaxyZJ0Oj6iWdJ/ekRD/moA1rNvAZ+PS8fjgIR58XFfzWdXTMANN0yuaBrSZRX0HgFKSPx3H+HfjKY94hvnLZtDXqXHxI2kc0UkSdlp7JECh1eEgSeg0dvULNk1bnuzcg/+e3MKu7PPI3h4ND0RjDmt/m8DE5HLGjF7KF239zH4hGDmdncwpPHm8671V4Q4g0Tz4ER50i+H97GSOGwfQVgGGi8c4blTRKmQgIaqabR1ajOfZ9sdYrdZzUQbH6gF7Y9vhDnRHBDw6remktFcjAZKD6aTVOKhrdwy5nBOvrWDpt0XYdQ0h8nknpJwcjiyJZ8n2Au6L7UugM6B0ImSoK5vfOcXRrZW0GmY+/3ie9NhC8GtHaITCsnJrKkLpygTivVvQ8e0wVDnZ7P08hbgHL6HYOILOIVLtaRd9ARlLsin08qZNf2eqo09y88CuIcNzhR0+Y8LR5wMYubg5lczca29uPHKGsqejGBGexOo3ElkjdeKeb+8m87VYEl/fTfi9UQRoLWwHuYxjL61g2YJCNC39CBvvgOJMLumrdrIs4QLRGwYR7mXhad2QNqtv36mmT2PVwo1kFOohYSHLk1+jb5Smri3rTdI41goySWt6bae1u7VXX3IOv666j4f3ljIk+hc+rxXuADIlFSXIONLM5orWkZxwsZUwFhVTUvWWwt4dd8lAxpkUCuQQXKp/RBHCIyMW8MgVH2817XAbuTMCXmmDU5COMk+NqWM42uPsbY+mee0TTz52mK2LClAP6MuExW1xrrpk7NIvlu+eOMyW+REEvNAMCQmXIYG4zdrJid+zqRwWcLmjy+mZHDsm4/R4IJ5qS8utZqTINpTHFkbSTAkQRlgrI99OSCM55hwdZ7ijMJ92KTnKiuXZFLdtzcBPr33DsP7t5UzrN/vTGoBKDj909LoBL7l70/JuDzwqW+L77knK7g4nsLMtztGu7HznPGdPywQESha1g5x+mPiYAtR9ejPpl0hcNKZti37+g/lPH2PbNx1oOd3NshO7IW1Wz75T8xmtGDNlOKtnxVMROZVxnRoX7gAoXPBz8eaCgxMKQKH1JMDRC529rn4j14oDfJ2UQLnkTxcf14aPdg3JLD94nDKjzK8rowhOjObfw99jagunuss05LIrLYlyr4H0NrvKlasuoJSuw3nI7xOmHfoPD7mq+LD7QNrYXedys7HtcAe6MwJe7UP/bZNqXnu0YuTeVldtVrn/DOcqlASMDa0KHwAJ+6FhBDqmcyT+DGXPN8NWAik0gJDQXWzfeIKTZQEE2QDIXIzN4JxRR4ehHpdHhZaUa6LAJaoFzmbTvDY9WuChPkLmiUKMuFvXiEWlQCEBCgUKBShUVbdt1QokWY9Rb9rMknbQHzjLuUolvve3rAp307YO0S3xf/k4qclnKZXdsL/ZZ3Y9+04NLW2nxJA05QbWQdmT//5jV81rh7HETBt7jY2NnDj8Ps/mV91k1eeTcmITCQUV+LV7lae9GnHKKzvy7Jj/Y6ShlLO565m3YwUv/liMw1PfMdHpyh4pk3/wFYYsX0el/1sceGTo1eVJAUwZ/Tlpi5/n682P0mlrM8L8BzEqYjxTIrvjc2VVLWoHAe6UgK8nQ7Eeo6RCrdJTet5snlavQK2TkIsqKJcxBbHKhdAhziR8ksXRRANB/ZRgvMSxdXnI7uGEdlE2rFwAJFR2VxwatQIlIFcaud7iNmtmSTvoiysxIqFxvGJEp9SgtZOgRE+ljFhAcRUDuSdX8M1JMC2TtMPNpQMTBz3Hmz364dmY9pI86RI+jC4Abe9jtPsTdFi6js/3HmV8v5bUvu0sYe/alnDbBIq9wmh2jSKVTkP4+IlEnkhfyZJDf7A6bSXvH1/KV0lTWTzxP/S3Ewe4MUTAm5EBjGUcnjyfw3X8u9LHfB25AvehATh/mszx33Mx9PNGkZtJ+h4j9mMDaaFtaLlNlyXt8Nctcme0meXUdB+8lTjzVTQ3hYRb8F10Uq5lW+5RKrky4EHb4l9se/Vfphdy9rWLUjjTOuxh3gx7mDeNeWyPf4axG77i8fW92DtiAA43bR+aPhHwZkzrnTUETR9M1w5XjxwkJ2d0ZmeNol0gIb7J7Io9wZm3vWkWl0F2hQ2t7vWq1bCWlttUWdIOfz1uk67x/3VtKkaBjVFSnE1epRZXp+a1psQklS22yBgMlegtKO+6h0PRnJ693uWFlCimH1nLjmEDGHSHrGa+GUTAm1Haq1AANmE+BETVo1ep3QgdrGPXN5mkH+iI27oc9M0CCet5xV+DWlpuE2VJO6js1SiQqSisBPOxobGC8hIZ7NWoq5fP2avRKGTKL1bULqSwnDLZVNad2+qNVcmW2LsYtT+UWc+u5AWXmpGIsTSffFnCRmNftchAwk5jh8QpLpRdcYUlXyS/VEZS2WH6W1Y9e7Y9yrQjbjx1/2zGmc/hS83xsJeQcwu4aARx8BruDhg31p860hN3TSWn1mZRatY/5ZOp/HbPUha/l33FSEWJ99AAHOQCMmPTOL69Em1UEH66xpZrIaUSpQbkgjLKrXiC3pJ2ULXzwE1tIPuXVPIv57ZM0cpUMi8paNbB7fI9C0W4B552Rs79msrp4uptDZxbnMrpShWeXZtf3dFvWpuVc3DeBLoEBdBu5GwSi25k2X8HFR0COmNv3MePu3dTWH3c5CISd8aQaLSjW0A7TPfBFXj7dKQFZ/h151pOX25XmbxjC/jpnJHmPh0JVgAo8bY1cODkMubs3MVFs/5QlreEmEw9KtdwwkW4N4oYwZuRglrTZ1IKv3wby4JTIYR20aEsKuDkmuNkX3Ci2wz3qxpM2TWQIPeDHPg+mYsXNATc64P2BpRrEbU7/l3VHI5LYtmEc3i5mc4KRWRrBk72sHgAVLFjH3Ex+VU3c41cPGAEfR77Xokjq+rixG5AJ/pGW1ayJe0gBYfTa/whli2IZ2GfTIJ7OCKdyeX4pjxKPUMZ9LhZaLsG02PqPk58mMzP/c4R1tcJ6eRpjsblI7fqQM/761hGd4Pb7DL9EZbNW8XBHD3kfslPu5+jWyPXwf+9JDzavsyLSYnM3DaWzll30d/NkaJzW/k96xTaFi/zRjvPy+2r9n2CN8J/5bFDz9L9wlpGBfqhLExiVcpOsm3680mfvthVlesZ8SIvJCXy3rb7iTjam/7eXmjK0tmWvosMgy+TBkyijRiCNooIeHOSloBZI3kgaCfbF2awf24pBhs7XLu1YchLXYjsXMcaXa0XYQNt2beomBKHIMKiroz3BpZrCYWOiDmDuPBCAvvi0jhb9R0jqnwf+jcgrPRHs9i/KIva3y1VRNbiw2SZdohmzuH0ibbw9pcl7SDZEPzBSMb67yD+xyzSYrKRHXR4DO/K0OkdCam1HESF1yvRPOi+g63zTpD6QzY4OeI9vje9/9MO37qqeYPbrKYqYURPuouf3tlGRbuHGd2hCXwFlrodr05cjs/mj/jq0DaWZFdgqwtjUK+XeL3v/USa76LkzYNjVuLk+T6z9/7JwoR1KG1a0C78RT6M+gejXM0iR9OJ6Q+vJHjLHL4+vJ3V+7Yia9wI85/E7N4v8FSgm1gk1UiSLMvXXY6Qk5ODl5fXDf/gm1WuIAiCYCIugARBEJooEfCCIAhNlAh4QRCEJkoEvCAIQhMlAl4QBKGJEgEvCILQRImAFwRBaKJEwAuCIDRRf1vAiz9yEgRBuLnECF4QBKGJEgEvCILQRImAFwRBaKJEwAuCIDRRIuAFQRCaKKv5PvjiXd/wzrIMdD5t6Tcimt5+dn93lQRBEG5rf9v3wdcmkzd/JCFTYykHJF1bpv7wG7MHiy/8FwRBaCgrmaKRaP7ISi5eyiPtt1forjjEvBnzOGj4658UBEEQ6mYlAV9FaY9v1FOM76zBkHGMzEY9iVoQBOHOZl0BDyBXUF4hI2lt0Ir5GUEQhAazwoAvpKBQRnJwxFEEvCAIQoNZX8Abi7hYaEShc0JnfbUTBEG4bVhhhBqRZUCttp41nIIgCLch6wt4VRt6d3fBmPobv+zIoUSspBEEQWgQ6wt4yZno2TG8GXWGjwYF4aqzxdbWFqcBn3LC+HdXThAE4fZhhbMgMvnJK/llczYOkcMZ09kbnUpCFRSJk7jpKgiCUG/WF/CGdBa8PY9DzR5j7aaP6Wf7d1dIEATh9mR9UzTGHE7lGFC4t8Bb83dXRhAE4fZlfQEv6dDZS8jFRRRf91tyBEEQhOuxwoB3wNlRQi4qpFAEvCAIQoNZX8ArHHF0VGAsKqRIrJoRBEFoMOsL+IpTZOUYkLQ22IhVM4IgCA1mNatoind9w9uL95KZuIa1KdDisWg6q//uWgmCINy+rGQEL1N6aDVffbWIuDOeDJ72Pas+uFusexcEQWgEK3mikyAIgnCjWckIXhAEQbjRRMALgiA0USLgBUEQmigR8IIgCE2UCHhBEIQmSgS8IAhCE/WXyyQFQRCE25MYwQuCIDRRIuAFQRCaKBHwgiAITZQIeEEQhCZKBLwgCEITZfHXBRfv+oZ3lmWg82lLvxHR9Pazuxn1EgRBEBrJwmWSMnnzRxIyNZZyQNK1ZeoPvzF7sBvim30FQRCsi4VTNBLNH1nJxUt5pP32Ct0Vh5g3Yx4HDTencoIgCELDNWwOXmmPb9RTjO+swZBxjEz9Da6VIAiC0GgNv8kqV1BeISNpbdCK+RlBEASr04iAL6SgUEZycMRRBLwgCILVaXjAG4u4WGhEoXNCJxZbCoIgWJ1GRLMRWQbUasvXWgqCIAg3XcMDXtWG3t1dMKb+xi87cigRK2kEQRCsSsMDXnImenYMb0ad4aNBQbjqbLG1tcVpwKecMN7AGgqCIAgN0ojZFZn85JX8sjkbh8jhjOnsjU4loQqKxEncdBUEQfjbNfyBH4ajfNS/MzNyH2Pt3o/pZ3uDayYIgiA0SiNW0eRwKseAwr0F3pobWCNBEAThhmjEHLwOnb2EXFxEsXjonyAIgtVpRMA74OwoIRcVUigCXhAEweo0POAVjjg6KjAWFVIkVs0IgiBYnYYHfMUpsnIMSFobbMSqGUEQBKvToAd+vL14L5mJa1ibAi0ei6az+mZUTRAEQWgMC0fwMqWHVvPVV4uIO+PJ4Gnfs+qDu8W6d0EQBCvU8HXwgiAIglUT3wMpCILQRImAFwRBaKJEwAuCIDRRIuAFQRCaqP8HNl9qC+5feskAAAAASUVORK5CYII=;" vertex="1" parent="1">
          <mxGeometry x="199.11" y="-950.98" width="171.89" height="178.3" as="geometry" />
        </mxCell>
        <mxCell id="6XXEYVE_oMR0we1vGqi9-1" value="" style="endArrow=classic;html=1;rounded=0;dashed=1;" edge="1" parent="1">
          <mxGeometry width="50" height="50" relative="1" as="geometry">
            <mxPoint x="557.1600000000001" y="-869.96" as="sourcePoint" />
            <mxPoint x="556.76" y="-827" as="targetPoint" />
            <Array as="points">
              <mxPoint x="556.9200000000001" y="-870" />
            </Array>
          </mxGeometry>
        </mxCell>
      </root>
    </mxGraphModel>
  </diagram>
</mxfile>
